<svg width="183" height="69" viewBox="0 0 183 69" fill="none" xmlns="http://www.w3.org/2000/svg">
<path d="M91.1667 1.65967V5.82633M75.1667 23.3823H71M77.1667 12.993L74.2204 10.0467M105.167 12.993L108.113 10.0467M111 23.3823H106.833" stroke="#FACC15" stroke-width="2" stroke-linecap="round" stroke-linejoin="round"/>
<path d="M100 23.3823V18.1798C100 17.8372 100 17.6658 99.9495 17.5131C99.9049 17.3779 99.8318 17.2538 99.7354 17.1491C99.6263 17.0308 99.4766 16.9476 99.177 16.7812L91.777 12.6701C91.4934 12.5125 91.3516 12.4337 91.2015 12.4028C91.0685 12.3755 90.9315 12.3755 90.7985 12.4028C90.6484 12.4337 90.5066 12.5125 90.223 12.6701L82.823 16.7812C82.5234 16.9476 82.3737 17.0308 82.2646 17.1491C82.1682 17.2538 82.0951 17.3779 82.0505 17.5131C82 17.6658 82 17.8372 82 18.1798V23.3823" stroke="#F59E0B" stroke-width="2" stroke-linecap="round" stroke-linejoin="round"/>
<path d="M78.9999 37.6193C81.4444 38.6367 84.5555 38.6367 87 37.6193C89.4444 36.602 92.5556 36.602 95 37.6193C97.4444 38.6367 100.556 38.6367 103 37.6193M71 31.1453C73.4444 30.128 76.5556 30.128 79 31.1453C81.4444 32.1627 84.5556 32.1627 87 31.1453C89.4444 30.128 92.5556 30.128 95 31.1453C97.4444 32.1627 100.556 32.1627 103 31.1453C105.444 30.128 108.556 30.128 111 31.1453" stroke="#60A5FA" stroke-width="2" stroke-linecap="round" stroke-linejoin="round"/>
<path d="M1.84463 60.3403V43.6123H4.62863V50.4523H12.1646V43.6123H14.9486V60.3403H12.1646V53.0203H4.62863V60.3403H1.84463ZM25.5921 60.6763C24.0241 60.6763 22.6481 60.3163 21.4641 59.5963C20.2801 58.8763 19.3521 57.8603 18.6801 56.5483C18.0241 55.2363 17.6961 53.7163 17.6961 51.9883C17.6961 50.2443 18.0241 48.7163 18.6801 47.4043C19.3521 46.0923 20.2801 45.0763 21.4641 44.3563C22.6481 43.6363 24.0241 43.2763 25.5921 43.2763C27.1921 43.2763 28.5841 43.6363 29.7681 44.3563C30.9681 45.0763 31.8961 46.0923 32.5521 47.4043C33.2241 48.7003 33.5601 50.2283 33.5601 51.9883C33.5601 53.7323 33.2241 55.2603 32.5521 56.5723C31.8801 57.8683 30.9441 58.8763 29.7441 59.5963C28.5601 60.3163 27.1761 60.6763 25.5921 60.6763ZM25.5921 58.0363C26.6641 58.0363 27.5841 57.7883 28.3521 57.2923C29.1201 56.7963 29.7121 56.1003 30.1281 55.2043C30.5601 54.2923 30.7761 53.2203 30.7761 51.9883C30.7761 50.7403 30.5601 49.6683 30.1281 48.7723C29.7121 47.8603 29.1201 47.1563 28.3521 46.6603C27.5841 46.1643 26.6641 45.9163 25.5921 45.9163C24.5521 45.9163 23.6481 46.1643 22.8801 46.6603C22.1121 47.1403 21.5121 47.8363 21.0801 48.7483C20.6641 49.6443 20.4561 50.7243 20.4561 51.9883C20.4561 53.2363 20.6641 54.3163 21.0801 55.2283C21.4961 56.1243 22.0881 56.8203 22.8561 57.3163C23.6401 57.7963 24.5521 58.0363 25.5921 58.0363ZM36.3212 60.3403V43.6123H41.6732C43.0012 43.6123 44.0812 43.8123 44.9132 44.2123C45.7452 44.5963 46.3532 45.1483 46.7372 45.8683C47.1372 46.5883 47.3372 47.4363 47.3372 48.4123C47.3372 49.9003 46.9052 51.0603 46.0412 51.8923C45.1932 52.7083 43.9772 53.1803 42.3932 53.3083C42.0732 53.3083 41.7292 53.3083 41.3612 53.3083C40.9932 53.3083 40.6652 53.3083 40.3772 53.3083H39.1052V60.3403H36.3212ZM45.4892 60.3403L41.2412 52.9963L44.0972 52.6603L48.7052 60.3403H45.4892ZM39.1052 50.8603H41.3852C41.9932 50.8603 42.5292 50.7883 42.9932 50.6443C43.4732 50.5003 43.8492 50.2523 44.1212 49.9003C44.4092 49.5483 44.5532 49.0603 44.5532 48.4363C44.5532 47.8123 44.4092 47.3323 44.1212 46.9963C43.8492 46.6603 43.4732 46.4283 42.9932 46.3003C42.5132 46.1563 41.9772 46.0843 41.3852 46.0843H39.1052V50.8603ZM50.8056 60.3403V43.6123H53.5896V60.3403H50.8056ZM55.9851 60.3403V58.0363L65.8011 45.2203L66.2091 46.0843H56.5611V43.6123H68.6091V45.9163L59.0091 58.3963L58.6491 57.8683H68.8971V60.3403H55.9851ZM77.928 60.6763C76.36 60.6763 74.984 60.3163 73.8 59.5963C72.616 58.8763 71.688 57.8603 71.016 56.5483C70.36 55.2363 70.032 53.7163 70.032 51.9883C70.032 50.2443 70.36 48.7163 71.016 47.4043C71.688 46.0923 72.616 45.0763 73.8 44.3563C74.984 43.6363 76.36 43.2763 77.928 43.2763C79.528 43.2763 80.92 43.6363 82.104 44.3563C83.304 45.0763 84.232 46.0923 84.888 47.4043C85.56 48.7003 85.896 50.2283 85.896 51.9883C85.896 53.7323 85.56 55.2603 84.888 56.5723C84.216 57.8683 83.28 58.8763 82.08 59.5963C80.896 60.3163 79.512 60.6763 77.928 60.6763ZM77.928 58.0363C79 58.0363 79.92 57.7883 80.688 57.2923C81.456 56.7963 82.048 56.1003 82.464 55.2043C82.896 54.2923 83.112 53.2203 83.112 51.9883C83.112 50.7403 82.896 49.6683 82.464 48.7723C82.048 47.8603 81.456 47.1563 80.688 46.6603C79.92 46.1643 79 45.9163 77.928 45.9163C76.888 45.9163 75.984 46.1643 75.216 46.6603C74.448 47.1403 73.848 47.8363 73.416 48.7483C73 49.6443 72.792 50.7243 72.792 51.9883C72.792 53.2363 73 54.3163 73.416 55.2283C73.832 56.1243 74.424 56.8203 75.192 57.3163C75.976 57.7963 76.888 58.0363 77.928 58.0363ZM88.6571 60.3403V43.6123H91.5371L99.6011 56.7163H98.9051V43.6123H101.689V60.3403H98.7611L90.7691 47.2123H91.4411V60.3403H88.6571ZM116.721 60.6523C114.961 60.6523 113.521 60.1963 112.401 59.2843C111.297 58.3723 110.617 57.1563 110.361 55.6363L113.073 54.9643C113.249 56.0203 113.665 56.8203 114.321 57.3643C114.993 57.9083 115.817 58.1803 116.793 58.1803C117.337 58.1803 117.825 58.0843 118.257 57.8923C118.689 57.6843 119.025 57.3963 119.265 57.0283C119.521 56.6603 119.649 56.2443 119.649 55.7803C119.649 55.2843 119.513 54.8763 119.241 54.5563C118.969 54.2203 118.577 53.9243 118.065 53.6683C117.553 53.3963 116.929 53.1163 116.193 52.8283C115.185 52.4443 114.329 52.0283 113.625 51.5803C112.921 51.1323 112.385 50.6043 112.017 49.9963C111.649 49.3723 111.465 48.6363 111.465 47.7883C111.465 46.9083 111.681 46.1323 112.113 45.4603C112.545 44.7723 113.153 44.2363 113.937 43.8523C114.721 43.4683 115.625 43.2763 116.649 43.2763C117.753 43.2763 118.729 43.5243 119.577 44.0203C120.425 44.5163 121.105 45.2683 121.617 46.2763L119.409 47.6203C119.073 47.0123 118.665 46.5483 118.185 46.2283C117.705 45.8923 117.161 45.7243 116.553 45.7243C116.121 45.7243 115.729 45.8123 115.377 45.9883C115.025 46.1483 114.745 46.3803 114.537 46.6843C114.345 46.9883 114.249 47.3403 114.249 47.7403C114.249 48.1563 114.369 48.5243 114.609 48.8443C114.849 49.1483 115.217 49.4283 115.713 49.6843C116.225 49.9403 116.873 50.2203 117.657 50.5243C118.665 50.9083 119.521 51.3243 120.225 51.7723C120.929 52.2203 121.465 52.7563 121.833 53.3803C122.217 53.9883 122.409 54.7323 122.409 55.6123C122.409 56.5883 122.169 57.4523 121.689 58.2043C121.209 58.9563 120.537 59.5563 119.673 60.0043C118.825 60.4363 117.841 60.6523 116.721 60.6523ZM128.874 60.3403V46.0843H123.546V43.6123H136.986V46.0843H131.682V60.3403H128.874ZM145.169 60.6763C143.105 60.6763 141.529 60.1403 140.441 59.0683C139.369 57.9963 138.833 56.4043 138.833 54.2923V43.6123H141.617V53.9803C141.617 54.8923 141.721 55.6603 141.929 56.2843C142.153 56.8923 142.521 57.3563 143.033 57.6763C143.561 57.9803 144.273 58.1323 145.169 58.1323C146.065 58.1323 146.769 57.9723 147.281 57.6523C147.809 57.3323 148.185 56.8683 148.409 56.2603C148.633 55.6523 148.745 54.8923 148.745 53.9803V43.6123H151.505V54.1723C151.505 56.3323 150.969 57.9563 149.897 59.0443C148.825 60.1323 147.249 60.6763 145.169 60.6763ZM154.774 60.3403V43.6123H159.574C162.326 43.6123 164.462 44.3563 165.982 45.8443C167.502 47.3163 168.262 49.4043 168.262 52.1083C168.262 54.7643 167.51 56.8043 166.006 58.2283C164.518 59.6363 162.366 60.3403 159.55 60.3403H154.774ZM157.558 57.7963H159.286C160.582 57.7963 161.694 57.6203 162.622 57.2683C163.55 56.9003 164.254 56.2923 164.734 55.4443C165.214 54.5963 165.454 53.4523 165.454 52.0123C165.454 50.5723 165.214 49.4283 164.734 48.5803C164.27 47.7163 163.59 47.1003 162.694 46.7323C161.814 46.3483 160.758 46.1563 159.526 46.1563H157.558V57.7963ZM174.095 60.3403V53.8363L168.191 43.6123H171.359L175.415 51.0523L179.543 43.6123H182.687L176.879 53.8363V60.3403H174.095Z" fill="#334155"/>
<path d="M1.84463 60.3403V43.6123H4.62863V50.4523H12.1646V43.6123H14.9486V60.3403H12.1646V53.0203H4.62863V60.3403H1.84463ZM25.5921 60.6763C24.0241 60.6763 22.6481 60.3163 21.4641 59.5963C20.2801 58.8763 19.3521 57.8603 18.6801 56.5483C18.0241 55.2363 17.6961 53.7163 17.6961 51.9883C17.6961 50.2443 18.0241 48.7163 18.6801 47.4043C19.3521 46.0923 20.2801 45.0763 21.4641 44.3563C22.6481 43.6363 24.0241 43.2763 25.5921 43.2763C27.1921 43.2763 28.5841 43.6363 29.7681 44.3563C30.9681 45.0763 31.8961 46.0923 32.5521 47.4043C33.2241 48.7003 33.5601 50.2283 33.5601 51.9883C33.5601 53.7323 33.2241 55.2603 32.5521 56.5723C31.8801 57.8683 30.9441 58.8763 29.7441 59.5963C28.5601 60.3163 27.1761 60.6763 25.5921 60.6763ZM25.5921 58.0363C26.6641 58.0363 27.5841 57.7883 28.3521 57.2923C29.1201 56.7963 29.7121 56.1003 30.1281 55.2043C30.5601 54.2923 30.7761 53.2203 30.7761 51.9883C30.7761 50.7403 30.5601 49.6683 30.1281 48.7723C29.7121 47.8603 29.1201 47.1563 28.3521 46.6603C27.5841 46.1643 26.6641 45.9163 25.5921 45.9163C24.5521 45.9163 23.6481 46.1643 22.8801 46.6603C22.1121 47.1403 21.5121 47.8363 21.0801 48.7483C20.6641 49.6443 20.4561 50.7243 20.4561 51.9883C20.4561 53.2363 20.6641 54.3163 21.0801 55.2283C21.4961 56.1243 22.0881 56.8203 22.8561 57.3163C23.6401 57.7963 24.5521 58.0363 25.5921 58.0363ZM36.3212 60.3403V43.6123H41.6732C43.0012 43.6123 44.0812 43.8123 44.9132 44.2123C45.7452 44.5963 46.3532 45.1483 46.7372 45.8683C47.1372 46.5883 47.3372 47.4363 47.3372 48.4123C47.3372 49.9003 46.9052 51.0603 46.0412 51.8923C45.1932 52.7083 43.9772 53.1803 42.3932 53.3083C42.0732 53.3083 41.7292 53.3083 41.3612 53.3083C40.9932 53.3083 40.6652 53.3083 40.3772 53.3083H39.1052V60.3403H36.3212ZM45.4892 60.3403L41.2412 52.9963L44.0972 52.6603L48.7052 60.3403H45.4892ZM39.1052 50.8603H41.3852C41.9932 50.8603 42.5292 50.7883 42.9932 50.6443C43.4732 50.5003 43.8492 50.2523 44.1212 49.9003C44.4092 49.5483 44.5532 49.0603 44.5532 48.4363C44.5532 47.8123 44.4092 47.3323 44.1212 46.9963C43.8492 46.6603 43.4732 46.4283 42.9932 46.3003C42.5132 46.1563 41.9772 46.0843 41.3852 46.0843H39.1052V50.8603ZM50.8056 60.3403V43.6123H53.5896V60.3403H50.8056ZM55.9851 60.3403V58.0363L65.8011 45.2203L66.2091 46.0843H56.5611V43.6123H68.6091V45.9163L59.0091 58.3963L58.6491 57.8683H68.8971V60.3403H55.9851ZM77.928 60.6763C76.36 60.6763 74.984 60.3163 73.8 59.5963C72.616 58.8763 71.688 57.8603 71.016 56.5483C70.36 55.2363 70.032 53.7163 70.032 51.9883C70.032 50.2443 70.36 48.7163 71.016 47.4043C71.688 46.0923 72.616 45.0763 73.8 44.3563C74.984 43.6363 76.36 43.2763 77.928 43.2763C79.528 43.2763 80.92 43.6363 82.104 44.3563C83.304 45.0763 84.232 46.0923 84.888 47.4043C85.56 48.7003 85.896 50.2283 85.896 51.9883C85.896 53.7323 85.56 55.2603 84.888 56.5723C84.216 57.8683 83.28 58.8763 82.08 59.5963C80.896 60.3163 79.512 60.6763 77.928 60.6763ZM77.928 58.0363C79 58.0363 79.92 57.7883 80.688 57.2923C81.456 56.7963 82.048 56.1003 82.464 55.2043C82.896 54.2923 83.112 53.2203 83.112 51.9883C83.112 50.7403 82.896 49.6683 82.464 48.7723C82.048 47.8603 81.456 47.1563 80.688 46.6603C79.92 46.1643 79 45.9163 77.928 45.9163C76.888 45.9163 75.984 46.1643 75.216 46.6603C74.448 47.1403 73.848 47.8363 73.416 48.7483C73 49.6443 72.792 50.7243 72.792 51.9883C72.792 53.2363 73 54.3163 73.416 55.2283C73.832 56.1243 74.424 56.8203 75.192 57.3163C75.976 57.7963 76.888 58.0363 77.928 58.0363ZM88.6571 60.3403V43.6123H91.5371L99.6011 56.7163H98.9051V43.6123H101.689V60.3403H98.7611L90.7691 47.2123H91.4411V60.3403H88.6571ZM116.721 60.6523C114.961 60.6523 113.521 60.1963 112.401 59.2843C111.297 58.3723 110.617 57.1563 110.361 55.6363L113.073 54.9643C113.249 56.0203 113.665 56.8203 114.321 57.3643C114.993 57.9083 115.817 58.1803 116.793 58.1803C117.337 58.1803 117.825 58.0843 118.257 57.8923C118.689 57.6843 119.025 57.3963 119.265 57.0283C119.521 56.6603 119.649 56.2443 119.649 55.7803C119.649 55.2843 119.513 54.8763 119.241 54.5563C118.969 54.2203 118.577 53.9243 118.065 53.6683C117.553 53.3963 116.929 53.1163 116.193 52.8283C115.185 52.4443 114.329 52.0283 113.625 51.5803C112.921 51.1323 112.385 50.6043 112.017 49.9963C111.649 49.3723 111.465 48.6363 111.465 47.7883C111.465 46.9083 111.681 46.1323 112.113 45.4603C112.545 44.7723 113.153 44.2363 113.937 43.8523C114.721 43.4683 115.625 43.2763 116.649 43.2763C117.753 43.2763 118.729 43.5243 119.577 44.0203C120.425 44.5163 121.105 45.2683 121.617 46.2763L119.409 47.6203C119.073 47.0123 118.665 46.5483 118.185 46.2283C117.705 45.8923 117.161 45.7243 116.553 45.7243C116.121 45.7243 115.729 45.8123 115.377 45.9883C115.025 46.1483 114.745 46.3803 114.537 46.6843C114.345 46.9883 114.249 47.3403 114.249 47.7403C114.249 48.1563 114.369 48.5243 114.609 48.8443C114.849 49.1483 115.217 49.4283 115.713 49.6843C116.225 49.9403 116.873 50.2203 117.657 50.5243C118.665 50.9083 119.521 51.3243 120.225 51.7723C120.929 52.2203 121.465 52.7563 121.833 53.3803C122.217 53.9883 122.409 54.7323 122.409 55.6123C122.409 56.5883 122.169 57.4523 121.689 58.2043C121.209 58.9563 120.537 59.5563 119.673 60.0043C118.825 60.4363 117.841 60.6523 116.721 60.6523ZM128.874 60.3403V46.0843H123.546V43.6123H136.986V46.0843H131.682V60.3403H128.874ZM145.169 60.6763C143.105 60.6763 141.529 60.1403 140.441 59.0683C139.369 57.9963 138.833 56.4043 138.833 54.2923V43.6123H141.617V53.9803C141.617 54.8923 141.721 55.6603 141.929 56.2843C142.153 56.8923 142.521 57.3563 143.033 57.6763C143.561 57.9803 144.273 58.1323 145.169 58.1323C146.065 58.1323 146.769 57.9723 147.281 57.6523C147.809 57.3323 148.185 56.8683 148.409 56.2603C148.633 55.6523 148.745 54.8923 148.745 53.9803V43.6123H151.505V54.1723C151.505 56.3323 150.969 57.9563 149.897 59.0443C148.825 60.1323 147.249 60.6763 145.169 60.6763ZM154.774 60.3403V43.6123H159.574C162.326 43.6123 164.462 44.3563 165.982 45.8443C167.502 47.3163 168.262 49.4043 168.262 52.1083C168.262 54.7643 167.51 56.8043 166.006 58.2283C164.518 59.6363 162.366 60.3403 159.55 60.3403H154.774ZM157.558 57.7963H159.286C160.582 57.7963 161.694 57.6203 162.622 57.2683C163.55 56.9003 164.254 56.2923 164.734 55.4443C165.214 54.5963 165.454 53.4523 165.454 52.0123C165.454 50.5723 165.214 49.4283 164.734 48.5803C164.27 47.7163 163.59 47.1003 162.694 46.7323C161.814 46.3483 160.758 46.1563 159.526 46.1563H157.558V57.7963ZM174.095 60.3403V53.8363L168.191 43.6123H171.359L175.415 51.0523L179.543 43.6123H182.687L176.879 53.8363V60.3403H174.095Z" fill="black" fill-opacity="0.2"/>
<path d="M1.84463 60.3403V43.6123H4.62863V50.4523H12.1646V43.6123H14.9486V60.3403H12.1646V53.0203H4.62863V60.3403H1.84463ZM25.5921 60.6763C24.0241 60.6763 22.6481 60.3163 21.4641 59.5963C20.2801 58.8763 19.3521 57.8603 18.6801 56.5483C18.0241 55.2363 17.6961 53.7163 17.6961 51.9883C17.6961 50.2443 18.0241 48.7163 18.6801 47.4043C19.3521 46.0923 20.2801 45.0763 21.4641 44.3563C22.6481 43.6363 24.0241 43.2763 25.5921 43.2763C27.1921 43.2763 28.5841 43.6363 29.7681 44.3563C30.9681 45.0763 31.8961 46.0923 32.5521 47.4043C33.2241 48.7003 33.5601 50.2283 33.5601 51.9883C33.5601 53.7323 33.2241 55.2603 32.5521 56.5723C31.8801 57.8683 30.9441 58.8763 29.7441 59.5963C28.5601 60.3163 27.1761 60.6763 25.5921 60.6763ZM25.5921 58.0363C26.6641 58.0363 27.5841 57.7883 28.3521 57.2923C29.1201 56.7963 29.7121 56.1003 30.1281 55.2043C30.5601 54.2923 30.7761 53.2203 30.7761 51.9883C30.7761 50.7403 30.5601 49.6683 30.1281 48.7723C29.7121 47.8603 29.1201 47.1563 28.3521 46.6603C27.5841 46.1643 26.6641 45.9163 25.5921 45.9163C24.5521 45.9163 23.6481 46.1643 22.8801 46.6603C22.1121 47.1403 21.5121 47.8363 21.0801 48.7483C20.6641 49.6443 20.4561 50.7243 20.4561 51.9883C20.4561 53.2363 20.6641 54.3163 21.0801 55.2283C21.4961 56.1243 22.0881 56.8203 22.8561 57.3163C23.6401 57.7963 24.5521 58.0363 25.5921 58.0363ZM36.3212 60.3403V43.6123H41.6732C43.0012 43.6123 44.0812 43.8123 44.9132 44.2123C45.7452 44.5963 46.3532 45.1483 46.7372 45.8683C47.1372 46.5883 47.3372 47.4363 47.3372 48.4123C47.3372 49.9003 46.9052 51.0603 46.0412 51.8923C45.1932 52.7083 43.9772 53.1803 42.3932 53.3083C42.0732 53.3083 41.7292 53.3083 41.3612 53.3083C40.9932 53.3083 40.6652 53.3083 40.3772 53.3083H39.1052V60.3403H36.3212ZM45.4892 60.3403L41.2412 52.9963L44.0972 52.6603L48.7052 60.3403H45.4892ZM39.1052 50.8603H41.3852C41.9932 50.8603 42.5292 50.7883 42.9932 50.6443C43.4732 50.5003 43.8492 50.2523 44.1212 49.9003C44.4092 49.5483 44.5532 49.0603 44.5532 48.4363C44.5532 47.8123 44.4092 47.3323 44.1212 46.9963C43.8492 46.6603 43.4732 46.4283 42.9932 46.3003C42.5132 46.1563 41.9772 46.0843 41.3852 46.0843H39.1052V50.8603ZM50.8056 60.3403V43.6123H53.5896V60.3403H50.8056ZM55.9851 60.3403V58.0363L65.8011 45.2203L66.2091 46.0843H56.5611V43.6123H68.6091V45.9163L59.0091 58.3963L58.6491 57.8683H68.8971V60.3403H55.9851ZM77.928 60.6763C76.36 60.6763 74.984 60.3163 73.8 59.5963C72.616 58.8763 71.688 57.8603 71.016 56.5483C70.36 55.2363 70.032 53.7163 70.032 51.9883C70.032 50.2443 70.36 48.7163 71.016 47.4043C71.688 46.0923 72.616 45.0763 73.8 44.3563C74.984 43.6363 76.36 43.2763 77.928 43.2763C79.528 43.2763 80.92 43.6363 82.104 44.3563C83.304 45.0763 84.232 46.0923 84.888 47.4043C85.56 48.7003 85.896 50.2283 85.896 51.9883C85.896 53.7323 85.56 55.2603 84.888 56.5723C84.216 57.8683 83.28 58.8763 82.08 59.5963C80.896 60.3163 79.512 60.6763 77.928 60.6763ZM77.928 58.0363C79 58.0363 79.92 57.7883 80.688 57.2923C81.456 56.7963 82.048 56.1003 82.464 55.2043C82.896 54.2923 83.112 53.2203 83.112 51.9883C83.112 50.7403 82.896 49.6683 82.464 48.7723C82.048 47.8603 81.456 47.1563 80.688 46.6603C79.92 46.1643 79 45.9163 77.928 45.9163C76.888 45.9163 75.984 46.1643 75.216 46.6603C74.448 47.1403 73.848 47.8363 73.416 48.7483C73 49.6443 72.792 50.7243 72.792 51.9883C72.792 53.2363 73 54.3163 73.416 55.2283C73.832 56.1243 74.424 56.8203 75.192 57.3163C75.976 57.7963 76.888 58.0363 77.928 58.0363ZM88.6571 60.3403V43.6123H91.5371L99.6011 56.7163H98.9051V43.6123H101.689V60.3403H98.7611L90.7691 47.2123H91.4411V60.3403H88.6571ZM116.721 60.6523C114.961 60.6523 113.521 60.1963 112.401 59.2843C111.297 58.3723 110.617 57.1563 110.361 55.6363L113.073 54.9643C113.249 56.0203 113.665 56.8203 114.321 57.3643C114.993 57.9083 115.817 58.1803 116.793 58.1803C117.337 58.1803 117.825 58.0843 118.257 57.8923C118.689 57.6843 119.025 57.3963 119.265 57.0283C119.521 56.6603 119.649 56.2443 119.649 55.7803C119.649 55.2843 119.513 54.8763 119.241 54.5563C118.969 54.2203 118.577 53.9243 118.065 53.6683C117.553 53.3963 116.929 53.1163 116.193 52.8283C115.185 52.4443 114.329 52.0283 113.625 51.5803C112.921 51.1323 112.385 50.6043 112.017 49.9963C111.649 49.3723 111.465 48.6363 111.465 47.7883C111.465 46.9083 111.681 46.1323 112.113 45.4603C112.545 44.7723 113.153 44.2363 113.937 43.8523C114.721 43.4683 115.625 43.2763 116.649 43.2763C117.753 43.2763 118.729 43.5243 119.577 44.0203C120.425 44.5163 121.105 45.2683 121.617 46.2763L119.409 47.6203C119.073 47.0123 118.665 46.5483 118.185 46.2283C117.705 45.8923 117.161 45.7243 116.553 45.7243C116.121 45.7243 115.729 45.8123 115.377 45.9883C115.025 46.1483 114.745 46.3803 114.537 46.6843C114.345 46.9883 114.249 47.3403 114.249 47.7403C114.249 48.1563 114.369 48.5243 114.609 48.8443C114.849 49.1483 115.217 49.4283 115.713 49.6843C116.225 49.9403 116.873 50.2203 117.657 50.5243C118.665 50.9083 119.521 51.3243 120.225 51.7723C120.929 52.2203 121.465 52.7563 121.833 53.3803C122.217 53.9883 122.409 54.7323 122.409 55.6123C122.409 56.5883 122.169 57.4523 121.689 58.2043C121.209 58.9563 120.537 59.5563 119.673 60.0043C118.825 60.4363 117.841 60.6523 116.721 60.6523ZM128.874 60.3403V46.0843H123.546V43.6123H136.986V46.0843H131.682V60.3403H128.874ZM145.169 60.6763C143.105 60.6763 141.529 60.1403 140.441 59.0683C139.369 57.9963 138.833 56.4043 138.833 54.2923V43.6123H141.617V53.9803C141.617 54.8923 141.721 55.6603 141.929 56.2843C142.153 56.8923 142.521 57.3563 143.033 57.6763C143.561 57.9803 144.273 58.1323 145.169 58.1323C146.065 58.1323 146.769 57.9723 147.281 57.6523C147.809 57.3323 148.185 56.8683 148.409 56.2603C148.633 55.6523 148.745 54.8923 148.745 53.9803V43.6123H151.505V54.1723C151.505 56.3323 150.969 57.9563 149.897 59.0443C148.825 60.1323 147.249 60.6763 145.169 60.6763ZM154.774 60.3403V43.6123H159.574C162.326 43.6123 164.462 44.3563 165.982 45.8443C167.502 47.3163 168.262 49.4043 168.262 52.1083C168.262 54.7643 167.51 56.8043 166.006 58.2283C164.518 59.6363 162.366 60.3403 159.55 60.3403H154.774ZM157.558 57.7963H159.286C160.582 57.7963 161.694 57.6203 162.622 57.2683C163.55 56.9003 164.254 56.2923 164.734 55.4443C165.214 54.5963 165.454 53.4523 165.454 52.0123C165.454 50.5723 165.214 49.4283 164.734 48.5803C164.27 47.7163 163.59 47.1003 162.694 46.7323C161.814 46.3483 160.758 46.1563 159.526 46.1563H157.558V57.7963ZM174.095 60.3403V53.8363L168.191 43.6123H171.359L175.415 51.0523L179.543 43.6123H182.687L176.879 53.8363V60.3403H174.095Z" fill="black" fill-opacity="0.2"/>
<path d="M1.84463 60.3403V43.6123H4.62863V50.4523H12.1646V43.6123H14.9486V60.3403H12.1646V53.0203H4.62863V60.3403H1.84463ZM25.5921 60.6763C24.0241 60.6763 22.6481 60.3163 21.4641 59.5963C20.2801 58.8763 19.3521 57.8603 18.6801 56.5483C18.0241 55.2363 17.6961 53.7163 17.6961 51.9883C17.6961 50.2443 18.0241 48.7163 18.6801 47.4043C19.3521 46.0923 20.2801 45.0763 21.4641 44.3563C22.6481 43.6363 24.0241 43.2763 25.5921 43.2763C27.1921 43.2763 28.5841 43.6363 29.7681 44.3563C30.9681 45.0763 31.8961 46.0923 32.5521 47.4043C33.2241 48.7003 33.5601 50.2283 33.5601 51.9883C33.5601 53.7323 33.2241 55.2603 32.5521 56.5723C31.8801 57.8683 30.9441 58.8763 29.7441 59.5963C28.5601 60.3163 27.1761 60.6763 25.5921 60.6763ZM25.5921 58.0363C26.6641 58.0363 27.5841 57.7883 28.3521 57.2923C29.1201 56.7963 29.7121 56.1003 30.1281 55.2043C30.5601 54.2923 30.7761 53.2203 30.7761 51.9883C30.7761 50.7403 30.5601 49.6683 30.1281 48.7723C29.7121 47.8603 29.1201 47.1563 28.3521 46.6603C27.5841 46.1643 26.6641 45.9163 25.5921 45.9163C24.5521 45.9163 23.6481 46.1643 22.8801 46.6603C22.1121 47.1403 21.5121 47.8363 21.0801 48.7483C20.6641 49.6443 20.4561 50.7243 20.4561 51.9883C20.4561 53.2363 20.6641 54.3163 21.0801 55.2283C21.4961 56.1243 22.0881 56.8203 22.8561 57.3163C23.6401 57.7963 24.5521 58.0363 25.5921 58.0363ZM36.3212 60.3403V43.6123H41.6732C43.0012 43.6123 44.0812 43.8123 44.9132 44.2123C45.7452 44.5963 46.3532 45.1483 46.7372 45.8683C47.1372 46.5883 47.3372 47.4363 47.3372 48.4123C47.3372 49.9003 46.9052 51.0603 46.0412 51.8923C45.1932 52.7083 43.9772 53.1803 42.3932 53.3083C42.0732 53.3083 41.7292 53.3083 41.3612 53.3083C40.9932 53.3083 40.6652 53.3083 40.3772 53.3083H39.1052V60.3403H36.3212ZM45.4892 60.3403L41.2412 52.9963L44.0972 52.6603L48.7052 60.3403H45.4892ZM39.1052 50.8603H41.3852C41.9932 50.8603 42.5292 50.7883 42.9932 50.6443C43.4732 50.5003 43.8492 50.2523 44.1212 49.9003C44.4092 49.5483 44.5532 49.0603 44.5532 48.4363C44.5532 47.8123 44.4092 47.3323 44.1212 46.9963C43.8492 46.6603 43.4732 46.4283 42.9932 46.3003C42.5132 46.1563 41.9772 46.0843 41.3852 46.0843H39.1052V50.8603ZM50.8056 60.3403V43.6123H53.5896V60.3403H50.8056ZM55.9851 60.3403V58.0363L65.8011 45.2203L66.2091 46.0843H56.5611V43.6123H68.6091V45.9163L59.0091 58.3963L58.6491 57.8683H68.8971V60.3403H55.9851ZM77.928 60.6763C76.36 60.6763 74.984 60.3163 73.8 59.5963C72.616 58.8763 71.688 57.8603 71.016 56.5483C70.36 55.2363 70.032 53.7163 70.032 51.9883C70.032 50.2443 70.36 48.7163 71.016 47.4043C71.688 46.0923 72.616 45.0763 73.8 44.3563C74.984 43.6363 76.36 43.2763 77.928 43.2763C79.528 43.2763 80.92 43.6363 82.104 44.3563C83.304 45.0763 84.232 46.0923 84.888 47.4043C85.56 48.7003 85.896 50.2283 85.896 51.9883C85.896 53.7323 85.56 55.2603 84.888 56.5723C84.216 57.8683 83.28 58.8763 82.08 59.5963C80.896 60.3163 79.512 60.6763 77.928 60.6763ZM77.928 58.0363C79 58.0363 79.92 57.7883 80.688 57.2923C81.456 56.7963 82.048 56.1003 82.464 55.2043C82.896 54.2923 83.112 53.2203 83.112 51.9883C83.112 50.7403 82.896 49.6683 82.464 48.7723C82.048 47.8603 81.456 47.1563 80.688 46.6603C79.92 46.1643 79 45.9163 77.928 45.9163C76.888 45.9163 75.984 46.1643 75.216 46.6603C74.448 47.1403 73.848 47.8363 73.416 48.7483C73 49.6443 72.792 50.7243 72.792 51.9883C72.792 53.2363 73 54.3163 73.416 55.2283C73.832 56.1243 74.424 56.8203 75.192 57.3163C75.976 57.7963 76.888 58.0363 77.928 58.0363ZM88.6571 60.3403V43.6123H91.5371L99.6011 56.7163H98.9051V43.6123H101.689V60.3403H98.7611L90.7691 47.2123H91.4411V60.3403H88.6571ZM116.721 60.6523C114.961 60.6523 113.521 60.1963 112.401 59.2843C111.297 58.3723 110.617 57.1563 110.361 55.6363L113.073 54.9643C113.249 56.0203 113.665 56.8203 114.321 57.3643C114.993 57.9083 115.817 58.1803 116.793 58.1803C117.337 58.1803 117.825 58.0843 118.257 57.8923C118.689 57.6843 119.025 57.3963 119.265 57.0283C119.521 56.6603 119.649 56.2443 119.649 55.7803C119.649 55.2843 119.513 54.8763 119.241 54.5563C118.969 54.2203 118.577 53.9243 118.065 53.6683C117.553 53.3963 116.929 53.1163 116.193 52.8283C115.185 52.4443 114.329 52.0283 113.625 51.5803C112.921 51.1323 112.385 50.6043 112.017 49.9963C111.649 49.3723 111.465 48.6363 111.465 47.7883C111.465 46.9083 111.681 46.1323 112.113 45.4603C112.545 44.7723 113.153 44.2363 113.937 43.8523C114.721 43.4683 115.625 43.2763 116.649 43.2763C117.753 43.2763 118.729 43.5243 119.577 44.0203C120.425 44.5163 121.105 45.2683 121.617 46.2763L119.409 47.6203C119.073 47.0123 118.665 46.5483 118.185 46.2283C117.705 45.8923 117.161 45.7243 116.553 45.7243C116.121 45.7243 115.729 45.8123 115.377 45.9883C115.025 46.1483 114.745 46.3803 114.537 46.6843C114.345 46.9883 114.249 47.3403 114.249 47.7403C114.249 48.1563 114.369 48.5243 114.609 48.8443C114.849 49.1483 115.217 49.4283 115.713 49.6843C116.225 49.9403 116.873 50.2203 117.657 50.5243C118.665 50.9083 119.521 51.3243 120.225 51.7723C120.929 52.2203 121.465 52.7563 121.833 53.3803C122.217 53.9883 122.409 54.7323 122.409 55.6123C122.409 56.5883 122.169 57.4523 121.689 58.2043C121.209 58.9563 120.537 59.5563 119.673 60.0043C118.825 60.4363 117.841 60.6523 116.721 60.6523ZM128.874 60.3403V46.0843H123.546V43.6123H136.986V46.0843H131.682V60.3403H128.874ZM145.169 60.6763C143.105 60.6763 141.529 60.1403 140.441 59.0683C139.369 57.9963 138.833 56.4043 138.833 54.2923V43.6123H141.617V53.9803C141.617 54.8923 141.721 55.6603 141.929 56.2843C142.153 56.8923 142.521 57.3563 143.033 57.6763C143.561 57.9803 144.273 58.1323 145.169 58.1323C146.065 58.1323 146.769 57.9723 147.281 57.6523C147.809 57.3323 148.185 56.8683 148.409 56.2603C148.633 55.6523 148.745 54.8923 148.745 53.9803V43.6123H151.505V54.1723C151.505 56.3323 150.969 57.9563 149.897 59.0443C148.825 60.1323 147.249 60.6763 145.169 60.6763ZM154.774 60.3403V43.6123H159.574C162.326 43.6123 164.462 44.3563 165.982 45.8443C167.502 47.3163 168.262 49.4043 168.262 52.1083C168.262 54.7643 167.51 56.8043 166.006 58.2283C164.518 59.6363 162.366 60.3403 159.55 60.3403H154.774ZM157.558 57.7963H159.286C160.582 57.7963 161.694 57.6203 162.622 57.2683C163.55 56.9003 164.254 56.2923 164.734 55.4443C165.214 54.5963 165.454 53.4523 165.454 52.0123C165.454 50.5723 165.214 49.4283 164.734 48.5803C164.27 47.7163 163.59 47.1003 162.694 46.7323C161.814 46.3483 160.758 46.1563 159.526 46.1563H157.558V57.7963ZM174.095 60.3403V53.8363L168.191 43.6123H171.359L175.415 51.0523L179.543 43.6123H182.687L176.879 53.8363V60.3403H174.095Z" fill="black" fill-opacity="0.2"/>
<path d="M1.84463 60.3403V43.6123H4.62863V50.4523H12.1646V43.6123H14.9486V60.3403H12.1646V53.0203H4.62863V60.3403H1.84463ZM25.5921 60.6763C24.0241 60.6763 22.6481 60.3163 21.4641 59.5963C20.2801 58.8763 19.3521 57.8603 18.6801 56.5483C18.0241 55.2363 17.6961 53.7163 17.6961 51.9883C17.6961 50.2443 18.0241 48.7163 18.6801 47.4043C19.3521 46.0923 20.2801 45.0763 21.4641 44.3563C22.6481 43.6363 24.0241 43.2763 25.5921 43.2763C27.1921 43.2763 28.5841 43.6363 29.7681 44.3563C30.9681 45.0763 31.8961 46.0923 32.5521 47.4043C33.2241 48.7003 33.5601 50.2283 33.5601 51.9883C33.5601 53.7323 33.2241 55.2603 32.5521 56.5723C31.8801 57.8683 30.9441 58.8763 29.7441 59.5963C28.5601 60.3163 27.1761 60.6763 25.5921 60.6763ZM25.5921 58.0363C26.6641 58.0363 27.5841 57.7883 28.3521 57.2923C29.1201 56.7963 29.7121 56.1003 30.1281 55.2043C30.5601 54.2923 30.7761 53.2203 30.7761 51.9883C30.7761 50.7403 30.5601 49.6683 30.1281 48.7723C29.7121 47.8603 29.1201 47.1563 28.3521 46.6603C27.5841 46.1643 26.6641 45.9163 25.5921 45.9163C24.5521 45.9163 23.6481 46.1643 22.8801 46.6603C22.1121 47.1403 21.5121 47.8363 21.0801 48.7483C20.6641 49.6443 20.4561 50.7243 20.4561 51.9883C20.4561 53.2363 20.6641 54.3163 21.0801 55.2283C21.4961 56.1243 22.0881 56.8203 22.8561 57.3163C23.6401 57.7963 24.5521 58.0363 25.5921 58.0363ZM36.3212 60.3403V43.6123H41.6732C43.0012 43.6123 44.0812 43.8123 44.9132 44.2123C45.7452 44.5963 46.3532 45.1483 46.7372 45.8683C47.1372 46.5883 47.3372 47.4363 47.3372 48.4123C47.3372 49.9003 46.9052 51.0603 46.0412 51.8923C45.1932 52.7083 43.9772 53.1803 42.3932 53.3083C42.0732 53.3083 41.7292 53.3083 41.3612 53.3083C40.9932 53.3083 40.6652 53.3083 40.3772 53.3083H39.1052V60.3403H36.3212ZM45.4892 60.3403L41.2412 52.9963L44.0972 52.6603L48.7052 60.3403H45.4892ZM39.1052 50.8603H41.3852C41.9932 50.8603 42.5292 50.7883 42.9932 50.6443C43.4732 50.5003 43.8492 50.2523 44.1212 49.9003C44.4092 49.5483 44.5532 49.0603 44.5532 48.4363C44.5532 47.8123 44.4092 47.3323 44.1212 46.9963C43.8492 46.6603 43.4732 46.4283 42.9932 46.3003C42.5132 46.1563 41.9772 46.0843 41.3852 46.0843H39.1052V50.8603ZM50.8056 60.3403V43.6123H53.5896V60.3403H50.8056ZM55.9851 60.3403V58.0363L65.8011 45.2203L66.2091 46.0843H56.5611V43.6123H68.6091V45.9163L59.0091 58.3963L58.6491 57.8683H68.8971V60.3403H55.9851ZM77.928 60.6763C76.36 60.6763 74.984 60.3163 73.8 59.5963C72.616 58.8763 71.688 57.8603 71.016 56.5483C70.36 55.2363 70.032 53.7163 70.032 51.9883C70.032 50.2443 70.36 48.7163 71.016 47.4043C71.688 46.0923 72.616 45.0763 73.8 44.3563C74.984 43.6363 76.36 43.2763 77.928 43.2763C79.528 43.2763 80.92 43.6363 82.104 44.3563C83.304 45.0763 84.232 46.0923 84.888 47.4043C85.56 48.7003 85.896 50.2283 85.896 51.9883C85.896 53.7323 85.56 55.2603 84.888 56.5723C84.216 57.8683 83.28 58.8763 82.08 59.5963C80.896 60.3163 79.512 60.6763 77.928 60.6763ZM77.928 58.0363C79 58.0363 79.92 57.7883 80.688 57.2923C81.456 56.7963 82.048 56.1003 82.464 55.2043C82.896 54.2923 83.112 53.2203 83.112 51.9883C83.112 50.7403 82.896 49.6683 82.464 48.7723C82.048 47.8603 81.456 47.1563 80.688 46.6603C79.92 46.1643 79 45.9163 77.928 45.9163C76.888 45.9163 75.984 46.1643 75.216 46.6603C74.448 47.1403 73.848 47.8363 73.416 48.7483C73 49.6443 72.792 50.7243 72.792 51.9883C72.792 53.2363 73 54.3163 73.416 55.2283C73.832 56.1243 74.424 56.8203 75.192 57.3163C75.976 57.7963 76.888 58.0363 77.928 58.0363ZM88.6571 60.3403V43.6123H91.5371L99.6011 56.7163H98.9051V43.6123H101.689V60.3403H98.7611L90.7691 47.2123H91.4411V60.3403H88.6571ZM116.721 60.6523C114.961 60.6523 113.521 60.1963 112.401 59.2843C111.297 58.3723 110.617 57.1563 110.361 55.6363L113.073 54.9643C113.249 56.0203 113.665 56.8203 114.321 57.3643C114.993 57.9083 115.817 58.1803 116.793 58.1803C117.337 58.1803 117.825 58.0843 118.257 57.8923C118.689 57.6843 119.025 57.3963 119.265 57.0283C119.521 56.6603 119.649 56.2443 119.649 55.7803C119.649 55.2843 119.513 54.8763 119.241 54.5563C118.969 54.2203 118.577 53.9243 118.065 53.6683C117.553 53.3963 116.929 53.1163 116.193 52.8283C115.185 52.4443 114.329 52.0283 113.625 51.5803C112.921 51.1323 112.385 50.6043 112.017 49.9963C111.649 49.3723 111.465 48.6363 111.465 47.7883C111.465 46.9083 111.681 46.1323 112.113 45.4603C112.545 44.7723 113.153 44.2363 113.937 43.8523C114.721 43.4683 115.625 43.2763 116.649 43.2763C117.753 43.2763 118.729 43.5243 119.577 44.0203C120.425 44.5163 121.105 45.2683 121.617 46.2763L119.409 47.6203C119.073 47.0123 118.665 46.5483 118.185 46.2283C117.705 45.8923 117.161 45.7243 116.553 45.7243C116.121 45.7243 115.729 45.8123 115.377 45.9883C115.025 46.1483 114.745 46.3803 114.537 46.6843C114.345 46.9883 114.249 47.3403 114.249 47.7403C114.249 48.1563 114.369 48.5243 114.609 48.8443C114.849 49.1483 115.217 49.4283 115.713 49.6843C116.225 49.9403 116.873 50.2203 117.657 50.5243C118.665 50.9083 119.521 51.3243 120.225 51.7723C120.929 52.2203 121.465 52.7563 121.833 53.3803C122.217 53.9883 122.409 54.7323 122.409 55.6123C122.409 56.5883 122.169 57.4523 121.689 58.2043C121.209 58.9563 120.537 59.5563 119.673 60.0043C118.825 60.4363 117.841 60.6523 116.721 60.6523ZM128.874 60.3403V46.0843H123.546V43.6123H136.986V46.0843H131.682V60.3403H128.874ZM145.169 60.6763C143.105 60.6763 141.529 60.1403 140.441 59.0683C139.369 57.9963 138.833 56.4043 138.833 54.2923V43.6123H141.617V53.9803C141.617 54.8923 141.721 55.6603 141.929 56.2843C142.153 56.8923 142.521 57.3563 143.033 57.6763C143.561 57.9803 144.273 58.1323 145.169 58.1323C146.065 58.1323 146.769 57.9723 147.281 57.6523C147.809 57.3323 148.185 56.8683 148.409 56.2603C148.633 55.6523 148.745 54.8923 148.745 53.9803V43.6123H151.505V54.1723C151.505 56.3323 150.969 57.9563 149.897 59.0443C148.825 60.1323 147.249 60.6763 145.169 60.6763ZM154.774 60.3403V43.6123H159.574C162.326 43.6123 164.462 44.3563 165.982 45.8443C167.502 47.3163 168.262 49.4043 168.262 52.1083C168.262 54.7643 167.51 56.8043 166.006 58.2283C164.518 59.6363 162.366 60.3403 159.55 60.3403H154.774ZM157.558 57.7963H159.286C160.582 57.7963 161.694 57.6203 162.622 57.2683C163.55 56.9003 164.254 56.2923 164.734 55.4443C165.214 54.5963 165.454 53.4523 165.454 52.0123C165.454 50.5723 165.214 49.4283 164.734 48.5803C164.27 47.7163 163.59 47.1003 162.694 46.7323C161.814 46.3483 160.758 46.1563 159.526 46.1563H157.558V57.7963ZM174.095 60.3403V53.8363L168.191 43.6123H171.359L175.415 51.0523L179.543 43.6123H182.687L176.879 53.8363V60.3403H174.095Z" fill="black" fill-opacity="0.2"/>
<path d="M1.84463 60.3403V43.6123H4.62863V50.4523H12.1646V43.6123H14.9486V60.3403H12.1646V53.0203H4.62863V60.3403H1.84463ZM25.5921 60.6763C24.0241 60.6763 22.6481 60.3163 21.4641 59.5963C20.2801 58.8763 19.3521 57.8603 18.6801 56.5483C18.0241 55.2363 17.6961 53.7163 17.6961 51.9883C17.6961 50.2443 18.0241 48.7163 18.6801 47.4043C19.3521 46.0923 20.2801 45.0763 21.4641 44.3563C22.6481 43.6363 24.0241 43.2763 25.5921 43.2763C27.1921 43.2763 28.5841 43.6363 29.7681 44.3563C30.9681 45.0763 31.8961 46.0923 32.5521 47.4043C33.2241 48.7003 33.5601 50.2283 33.5601 51.9883C33.5601 53.7323 33.2241 55.2603 32.5521 56.5723C31.8801 57.8683 30.9441 58.8763 29.7441 59.5963C28.5601 60.3163 27.1761 60.6763 25.5921 60.6763ZM25.5921 58.0363C26.6641 58.0363 27.5841 57.7883 28.3521 57.2923C29.1201 56.7963 29.7121 56.1003 30.1281 55.2043C30.5601 54.2923 30.7761 53.2203 30.7761 51.9883C30.7761 50.7403 30.5601 49.6683 30.1281 48.7723C29.7121 47.8603 29.1201 47.1563 28.3521 46.6603C27.5841 46.1643 26.6641 45.9163 25.5921 45.9163C24.5521 45.9163 23.6481 46.1643 22.8801 46.6603C22.1121 47.1403 21.5121 47.8363 21.0801 48.7483C20.6641 49.6443 20.4561 50.7243 20.4561 51.9883C20.4561 53.2363 20.6641 54.3163 21.0801 55.2283C21.4961 56.1243 22.0881 56.8203 22.8561 57.3163C23.6401 57.7963 24.5521 58.0363 25.5921 58.0363ZM36.3212 60.3403V43.6123H41.6732C43.0012 43.6123 44.0812 43.8123 44.9132 44.2123C45.7452 44.5963 46.3532 45.1483 46.7372 45.8683C47.1372 46.5883 47.3372 47.4363 47.3372 48.4123C47.3372 49.9003 46.9052 51.0603 46.0412 51.8923C45.1932 52.7083 43.9772 53.1803 42.3932 53.3083C42.0732 53.3083 41.7292 53.3083 41.3612 53.3083C40.9932 53.3083 40.6652 53.3083 40.3772 53.3083H39.1052V60.3403H36.3212ZM45.4892 60.3403L41.2412 52.9963L44.0972 52.6603L48.7052 60.3403H45.4892ZM39.1052 50.8603H41.3852C41.9932 50.8603 42.5292 50.7883 42.9932 50.6443C43.4732 50.5003 43.8492 50.2523 44.1212 49.9003C44.4092 49.5483 44.5532 49.0603 44.5532 48.4363C44.5532 47.8123 44.4092 47.3323 44.1212 46.9963C43.8492 46.6603 43.4732 46.4283 42.9932 46.3003C42.5132 46.1563 41.9772 46.0843 41.3852 46.0843H39.1052V50.8603ZM50.8056 60.3403V43.6123H53.5896V60.3403H50.8056ZM55.9851 60.3403V58.0363L65.8011 45.2203L66.2091 46.0843H56.5611V43.6123H68.6091V45.9163L59.0091 58.3963L58.6491 57.8683H68.8971V60.3403H55.9851ZM77.928 60.6763C76.36 60.6763 74.984 60.3163 73.8 59.5963C72.616 58.8763 71.688 57.8603 71.016 56.5483C70.36 55.2363 70.032 53.7163 70.032 51.9883C70.032 50.2443 70.36 48.7163 71.016 47.4043C71.688 46.0923 72.616 45.0763 73.8 44.3563C74.984 43.6363 76.36 43.2763 77.928 43.2763C79.528 43.2763 80.92 43.6363 82.104 44.3563C83.304 45.0763 84.232 46.0923 84.888 47.4043C85.56 48.7003 85.896 50.2283 85.896 51.9883C85.896 53.7323 85.56 55.2603 84.888 56.5723C84.216 57.8683 83.28 58.8763 82.08 59.5963C80.896 60.3163 79.512 60.6763 77.928 60.6763ZM77.928 58.0363C79 58.0363 79.92 57.7883 80.688 57.2923C81.456 56.7963 82.048 56.1003 82.464 55.2043C82.896 54.2923 83.112 53.2203 83.112 51.9883C83.112 50.7403 82.896 49.6683 82.464 48.7723C82.048 47.8603 81.456 47.1563 80.688 46.6603C79.92 46.1643 79 45.9163 77.928 45.9163C76.888 45.9163 75.984 46.1643 75.216 46.6603C74.448 47.1403 73.848 47.8363 73.416 48.7483C73 49.6443 72.792 50.7243 72.792 51.9883C72.792 53.2363 73 54.3163 73.416 55.2283C73.832 56.1243 74.424 56.8203 75.192 57.3163C75.976 57.7963 76.888 58.0363 77.928 58.0363ZM88.6571 60.3403V43.6123H91.5371L99.6011 56.7163H98.9051V43.6123H101.689V60.3403H98.7611L90.7691 47.2123H91.4411V60.3403H88.6571ZM116.721 60.6523C114.961 60.6523 113.521 60.1963 112.401 59.2843C111.297 58.3723 110.617 57.1563 110.361 55.6363L113.073 54.9643C113.249 56.0203 113.665 56.8203 114.321 57.3643C114.993 57.9083 115.817 58.1803 116.793 58.1803C117.337 58.1803 117.825 58.0843 118.257 57.8923C118.689 57.6843 119.025 57.3963 119.265 57.0283C119.521 56.6603 119.649 56.2443 119.649 55.7803C119.649 55.2843 119.513 54.8763 119.241 54.5563C118.969 54.2203 118.577 53.9243 118.065 53.6683C117.553 53.3963 116.929 53.1163 116.193 52.8283C115.185 52.4443 114.329 52.0283 113.625 51.5803C112.921 51.1323 112.385 50.6043 112.017 49.9963C111.649 49.3723 111.465 48.6363 111.465 47.7883C111.465 46.9083 111.681 46.1323 112.113 45.4603C112.545 44.7723 113.153 44.2363 113.937 43.8523C114.721 43.4683 115.625 43.2763 116.649 43.2763C117.753 43.2763 118.729 43.5243 119.577 44.0203C120.425 44.5163 121.105 45.2683 121.617 46.2763L119.409 47.6203C119.073 47.0123 118.665 46.5483 118.185 46.2283C117.705 45.8923 117.161 45.7243 116.553 45.7243C116.121 45.7243 115.729 45.8123 115.377 45.9883C115.025 46.1483 114.745 46.3803 114.537 46.6843C114.345 46.9883 114.249 47.3403 114.249 47.7403C114.249 48.1563 114.369 48.5243 114.609 48.8443C114.849 49.1483 115.217 49.4283 115.713 49.6843C116.225 49.9403 116.873 50.2203 117.657 50.5243C118.665 50.9083 119.521 51.3243 120.225 51.7723C120.929 52.2203 121.465 52.7563 121.833 53.3803C122.217 53.9883 122.409 54.7323 122.409 55.6123C122.409 56.5883 122.169 57.4523 121.689 58.2043C121.209 58.9563 120.537 59.5563 119.673 60.0043C118.825 60.4363 117.841 60.6523 116.721 60.6523ZM128.874 60.3403V46.0843H123.546V43.6123H136.986V46.0843H131.682V60.3403H128.874ZM145.169 60.6763C143.105 60.6763 141.529 60.1403 140.441 59.0683C139.369 57.9963 138.833 56.4043 138.833 54.2923V43.6123H141.617V53.9803C141.617 54.8923 141.721 55.6603 141.929 56.2843C142.153 56.8923 142.521 57.3563 143.033 57.6763C143.561 57.9803 144.273 58.1323 145.169 58.1323C146.065 58.1323 146.769 57.9723 147.281 57.6523C147.809 57.3323 148.185 56.8683 148.409 56.2603C148.633 55.6523 148.745 54.8923 148.745 53.9803V43.6123H151.505V54.1723C151.505 56.3323 150.969 57.9563 149.897 59.0443C148.825 60.1323 147.249 60.6763 145.169 60.6763ZM154.774 60.3403V43.6123H159.574C162.326 43.6123 164.462 44.3563 165.982 45.8443C167.502 47.3163 168.262 49.4043 168.262 52.1083C168.262 54.7643 167.51 56.8043 166.006 58.2283C164.518 59.6363 162.366 60.3403 159.55 60.3403H154.774ZM157.558 57.7963H159.286C160.582 57.7963 161.694 57.6203 162.622 57.2683C163.55 56.9003 164.254 56.2923 164.734 55.4443C165.214 54.5963 165.454 53.4523 165.454 52.0123C165.454 50.5723 165.214 49.4283 164.734 48.5803C164.27 47.7163 163.59 47.1003 162.694 46.7323C161.814 46.3483 160.758 46.1563 159.526 46.1563H157.558V57.7963ZM174.095 60.3403V53.8363L168.191 43.6123H171.359L175.415 51.0523L179.543 43.6123H182.687L176.879 53.8363V60.3403H174.095Z" fill="black" fill-opacity="0.2"/>
<path d="M1.84463 60.3403V43.6123H4.62863V50.4523H12.1646V43.6123H14.9486V60.3403H12.1646V53.0203H4.62863V60.3403H1.84463ZM25.5921 60.6763C24.0241 60.6763 22.6481 60.3163 21.4641 59.5963C20.2801 58.8763 19.3521 57.8603 18.6801 56.5483C18.0241 55.2363 17.6961 53.7163 17.6961 51.9883C17.6961 50.2443 18.0241 48.7163 18.6801 47.4043C19.3521 46.0923 20.2801 45.0763 21.4641 44.3563C22.6481 43.6363 24.0241 43.2763 25.5921 43.2763C27.1921 43.2763 28.5841 43.6363 29.7681 44.3563C30.9681 45.0763 31.8961 46.0923 32.5521 47.4043C33.2241 48.7003 33.5601 50.2283 33.5601 51.9883C33.5601 53.7323 33.2241 55.2603 32.5521 56.5723C31.8801 57.8683 30.9441 58.8763 29.7441 59.5963C28.5601 60.3163 27.1761 60.6763 25.5921 60.6763ZM25.5921 58.0363C26.6641 58.0363 27.5841 57.7883 28.3521 57.2923C29.1201 56.7963 29.7121 56.1003 30.1281 55.2043C30.5601 54.2923 30.7761 53.2203 30.7761 51.9883C30.7761 50.7403 30.5601 49.6683 30.1281 48.7723C29.7121 47.8603 29.1201 47.1563 28.3521 46.6603C27.5841 46.1643 26.6641 45.9163 25.5921 45.9163C24.5521 45.9163 23.6481 46.1643 22.8801 46.6603C22.1121 47.1403 21.5121 47.8363 21.0801 48.7483C20.6641 49.6443 20.4561 50.7243 20.4561 51.9883C20.4561 53.2363 20.6641 54.3163 21.0801 55.2283C21.4961 56.1243 22.0881 56.8203 22.8561 57.3163C23.6401 57.7963 24.5521 58.0363 25.5921 58.0363ZM36.3212 60.3403V43.6123H41.6732C43.0012 43.6123 44.0812 43.8123 44.9132 44.2123C45.7452 44.5963 46.3532 45.1483 46.7372 45.8683C47.1372 46.5883 47.3372 47.4363 47.3372 48.4123C47.3372 49.9003 46.9052 51.0603 46.0412 51.8923C45.1932 52.7083 43.9772 53.1803 42.3932 53.3083C42.0732 53.3083 41.7292 53.3083 41.3612 53.3083C40.9932 53.3083 40.6652 53.3083 40.3772 53.3083H39.1052V60.3403H36.3212ZM45.4892 60.3403L41.2412 52.9963L44.0972 52.6603L48.7052 60.3403H45.4892ZM39.1052 50.8603H41.3852C41.9932 50.8603 42.5292 50.7883 42.9932 50.6443C43.4732 50.5003 43.8492 50.2523 44.1212 49.9003C44.4092 49.5483 44.5532 49.0603 44.5532 48.4363C44.5532 47.8123 44.4092 47.3323 44.1212 46.9963C43.8492 46.6603 43.4732 46.4283 42.9932 46.3003C42.5132 46.1563 41.9772 46.0843 41.3852 46.0843H39.1052V50.8603ZM50.8056 60.3403V43.6123H53.5896V60.3403H50.8056ZM55.9851 60.3403V58.0363L65.8011 45.2203L66.2091 46.0843H56.5611V43.6123H68.6091V45.9163L59.0091 58.3963L58.6491 57.8683H68.8971V60.3403H55.9851ZM77.928 60.6763C76.36 60.6763 74.984 60.3163 73.8 59.5963C72.616 58.8763 71.688 57.8603 71.016 56.5483C70.36 55.2363 70.032 53.7163 70.032 51.9883C70.032 50.2443 70.36 48.7163 71.016 47.4043C71.688 46.0923 72.616 45.0763 73.8 44.3563C74.984 43.6363 76.36 43.2763 77.928 43.2763C79.528 43.2763 80.92 43.6363 82.104 44.3563C83.304 45.0763 84.232 46.0923 84.888 47.4043C85.56 48.7003 85.896 50.2283 85.896 51.9883C85.896 53.7323 85.56 55.2603 84.888 56.5723C84.216 57.8683 83.28 58.8763 82.08 59.5963C80.896 60.3163 79.512 60.6763 77.928 60.6763ZM77.928 58.0363C79 58.0363 79.92 57.7883 80.688 57.2923C81.456 56.7963 82.048 56.1003 82.464 55.2043C82.896 54.2923 83.112 53.2203 83.112 51.9883C83.112 50.7403 82.896 49.6683 82.464 48.7723C82.048 47.8603 81.456 47.1563 80.688 46.6603C79.92 46.1643 79 45.9163 77.928 45.9163C76.888 45.9163 75.984 46.1643 75.216 46.6603C74.448 47.1403 73.848 47.8363 73.416 48.7483C73 49.6443 72.792 50.7243 72.792 51.9883C72.792 53.2363 73 54.3163 73.416 55.2283C73.832 56.1243 74.424 56.8203 75.192 57.3163C75.976 57.7963 76.888 58.0363 77.928 58.0363ZM88.6571 60.3403V43.6123H91.5371L99.6011 56.7163H98.9051V43.6123H101.689V60.3403H98.7611L90.7691 47.2123H91.4411V60.3403H88.6571ZM116.721 60.6523C114.961 60.6523 113.521 60.1963 112.401 59.2843C111.297 58.3723 110.617 57.1563 110.361 55.6363L113.073 54.9643C113.249 56.0203 113.665 56.8203 114.321 57.3643C114.993 57.9083 115.817 58.1803 116.793 58.1803C117.337 58.1803 117.825 58.0843 118.257 57.8923C118.689 57.6843 119.025 57.3963 119.265 57.0283C119.521 56.6603 119.649 56.2443 119.649 55.7803C119.649 55.2843 119.513 54.8763 119.241 54.5563C118.969 54.2203 118.577 53.9243 118.065 53.6683C117.553 53.3963 116.929 53.1163 116.193 52.8283C115.185 52.4443 114.329 52.0283 113.625 51.5803C112.921 51.1323 112.385 50.6043 112.017 49.9963C111.649 49.3723 111.465 48.6363 111.465 47.7883C111.465 46.9083 111.681 46.1323 112.113 45.4603C112.545 44.7723 113.153 44.2363 113.937 43.8523C114.721 43.4683 115.625 43.2763 116.649 43.2763C117.753 43.2763 118.729 43.5243 119.577 44.0203C120.425 44.5163 121.105 45.2683 121.617 46.2763L119.409 47.6203C119.073 47.0123 118.665 46.5483 118.185 46.2283C117.705 45.8923 117.161 45.7243 116.553 45.7243C116.121 45.7243 115.729 45.8123 115.377 45.9883C115.025 46.1483 114.745 46.3803 114.537 46.6843C114.345 46.9883 114.249 47.3403 114.249 47.7403C114.249 48.1563 114.369 48.5243 114.609 48.8443C114.849 49.1483 115.217 49.4283 115.713 49.6843C116.225 49.9403 116.873 50.2203 117.657 50.5243C118.665 50.9083 119.521 51.3243 120.225 51.7723C120.929 52.2203 121.465 52.7563 121.833 53.3803C122.217 53.9883 122.409 54.7323 122.409 55.6123C122.409 56.5883 122.169 57.4523 121.689 58.2043C121.209 58.9563 120.537 59.5563 119.673 60.0043C118.825 60.4363 117.841 60.6523 116.721 60.6523ZM128.874 60.3403V46.0843H123.546V43.6123H136.986V46.0843H131.682V60.3403H128.874ZM145.169 60.6763C143.105 60.6763 141.529 60.1403 140.441 59.0683C139.369 57.9963 138.833 56.4043 138.833 54.2923V43.6123H141.617V53.9803C141.617 54.8923 141.721 55.6603 141.929 56.2843C142.153 56.8923 142.521 57.3563 143.033 57.6763C143.561 57.9803 144.273 58.1323 145.169 58.1323C146.065 58.1323 146.769 57.9723 147.281 57.6523C147.809 57.3323 148.185 56.8683 148.409 56.2603C148.633 55.6523 148.745 54.8923 148.745 53.9803V43.6123H151.505V54.1723C151.505 56.3323 150.969 57.9563 149.897 59.0443C148.825 60.1323 147.249 60.6763 145.169 60.6763ZM154.774 60.3403V43.6123H159.574C162.326 43.6123 164.462 44.3563 165.982 45.8443C167.502 47.3163 168.262 49.4043 168.262 52.1083C168.262 54.7643 167.51 56.8043 166.006 58.2283C164.518 59.6363 162.366 60.3403 159.55 60.3403H154.774ZM157.558 57.7963H159.286C160.582 57.7963 161.694 57.6203 162.622 57.2683C163.55 56.9003 164.254 56.2923 164.734 55.4443C165.214 54.5963 165.454 53.4523 165.454 52.0123C165.454 50.5723 165.214 49.4283 164.734 48.5803C164.27 47.7163 163.59 47.1003 162.694 46.7323C161.814 46.3483 160.758 46.1563 159.526 46.1563H157.558V57.7963ZM174.095 60.3403V53.8363L168.191 43.6123H171.359L175.415 51.0523L179.543 43.6123H182.687L176.879 53.8363V60.3403H174.095Z" fill="black" fill-opacity="0.2"/>
<path d="M1.84463 60.3403V43.6123H4.62863V50.4523H12.1646V43.6123H14.9486V60.3403H12.1646V53.0203H4.62863V60.3403H1.84463ZM25.5921 60.6763C24.0241 60.6763 22.6481 60.3163 21.4641 59.5963C20.2801 58.8763 19.3521 57.8603 18.6801 56.5483C18.0241 55.2363 17.6961 53.7163 17.6961 51.9883C17.6961 50.2443 18.0241 48.7163 18.6801 47.4043C19.3521 46.0923 20.2801 45.0763 21.4641 44.3563C22.6481 43.6363 24.0241 43.2763 25.5921 43.2763C27.1921 43.2763 28.5841 43.6363 29.7681 44.3563C30.9681 45.0763 31.8961 46.0923 32.5521 47.4043C33.2241 48.7003 33.5601 50.2283 33.5601 51.9883C33.5601 53.7323 33.2241 55.2603 32.5521 56.5723C31.8801 57.8683 30.9441 58.8763 29.7441 59.5963C28.5601 60.3163 27.1761 60.6763 25.5921 60.6763ZM25.5921 58.0363C26.6641 58.0363 27.5841 57.7883 28.3521 57.2923C29.1201 56.7963 29.7121 56.1003 30.1281 55.2043C30.5601 54.2923 30.7761 53.2203 30.7761 51.9883C30.7761 50.7403 30.5601 49.6683 30.1281 48.7723C29.7121 47.8603 29.1201 47.1563 28.3521 46.6603C27.5841 46.1643 26.6641 45.9163 25.5921 45.9163C24.5521 45.9163 23.6481 46.1643 22.8801 46.6603C22.1121 47.1403 21.5121 47.8363 21.0801 48.7483C20.6641 49.6443 20.4561 50.7243 20.4561 51.9883C20.4561 53.2363 20.6641 54.3163 21.0801 55.2283C21.4961 56.1243 22.0881 56.8203 22.8561 57.3163C23.6401 57.7963 24.5521 58.0363 25.5921 58.0363ZM36.3212 60.3403V43.6123H41.6732C43.0012 43.6123 44.0812 43.8123 44.9132 44.2123C45.7452 44.5963 46.3532 45.1483 46.7372 45.8683C47.1372 46.5883 47.3372 47.4363 47.3372 48.4123C47.3372 49.9003 46.9052 51.0603 46.0412 51.8923C45.1932 52.7083 43.9772 53.1803 42.3932 53.3083C42.0732 53.3083 41.7292 53.3083 41.3612 53.3083C40.9932 53.3083 40.6652 53.3083 40.3772 53.3083H39.1052V60.3403H36.3212ZM45.4892 60.3403L41.2412 52.9963L44.0972 52.6603L48.7052 60.3403H45.4892ZM39.1052 50.8603H41.3852C41.9932 50.8603 42.5292 50.7883 42.9932 50.6443C43.4732 50.5003 43.8492 50.2523 44.1212 49.9003C44.4092 49.5483 44.5532 49.0603 44.5532 48.4363C44.5532 47.8123 44.4092 47.3323 44.1212 46.9963C43.8492 46.6603 43.4732 46.4283 42.9932 46.3003C42.5132 46.1563 41.9772 46.0843 41.3852 46.0843H39.1052V50.8603ZM50.8056 60.3403V43.6123H53.5896V60.3403H50.8056ZM55.9851 60.3403V58.0363L65.8011 45.2203L66.2091 46.0843H56.5611V43.6123H68.6091V45.9163L59.0091 58.3963L58.6491 57.8683H68.8971V60.3403H55.9851ZM77.928 60.6763C76.36 60.6763 74.984 60.3163 73.8 59.5963C72.616 58.8763 71.688 57.8603 71.016 56.5483C70.36 55.2363 70.032 53.7163 70.032 51.9883C70.032 50.2443 70.36 48.7163 71.016 47.4043C71.688 46.0923 72.616 45.0763 73.8 44.3563C74.984 43.6363 76.36 43.2763 77.928 43.2763C79.528 43.2763 80.92 43.6363 82.104 44.3563C83.304 45.0763 84.232 46.0923 84.888 47.4043C85.56 48.7003 85.896 50.2283 85.896 51.9883C85.896 53.7323 85.56 55.2603 84.888 56.5723C84.216 57.8683 83.28 58.8763 82.08 59.5963C80.896 60.3163 79.512 60.6763 77.928 60.6763ZM77.928 58.0363C79 58.0363 79.92 57.7883 80.688 57.2923C81.456 56.7963 82.048 56.1003 82.464 55.2043C82.896 54.2923 83.112 53.2203 83.112 51.9883C83.112 50.7403 82.896 49.6683 82.464 48.7723C82.048 47.8603 81.456 47.1563 80.688 46.6603C79.92 46.1643 79 45.9163 77.928 45.9163C76.888 45.9163 75.984 46.1643 75.216 46.6603C74.448 47.1403 73.848 47.8363 73.416 48.7483C73 49.6443 72.792 50.7243 72.792 51.9883C72.792 53.2363 73 54.3163 73.416 55.2283C73.832 56.1243 74.424 56.8203 75.192 57.3163C75.976 57.7963 76.888 58.0363 77.928 58.0363ZM88.6571 60.3403V43.6123H91.5371L99.6011 56.7163H98.9051V43.6123H101.689V60.3403H98.7611L90.7691 47.2123H91.4411V60.3403H88.6571ZM116.721 60.6523C114.961 60.6523 113.521 60.1963 112.401 59.2843C111.297 58.3723 110.617 57.1563 110.361 55.6363L113.073 54.9643C113.249 56.0203 113.665 56.8203 114.321 57.3643C114.993 57.9083 115.817 58.1803 116.793 58.1803C117.337 58.1803 117.825 58.0843 118.257 57.8923C118.689 57.6843 119.025 57.3963 119.265 57.0283C119.521 56.6603 119.649 56.2443 119.649 55.7803C119.649 55.2843 119.513 54.8763 119.241 54.5563C118.969 54.2203 118.577 53.9243 118.065 53.6683C117.553 53.3963 116.929 53.1163 116.193 52.8283C115.185 52.4443 114.329 52.0283 113.625 51.5803C112.921 51.1323 112.385 50.6043 112.017 49.9963C111.649 49.3723 111.465 48.6363 111.465 47.7883C111.465 46.9083 111.681 46.1323 112.113 45.4603C112.545 44.7723 113.153 44.2363 113.937 43.8523C114.721 43.4683 115.625 43.2763 116.649 43.2763C117.753 43.2763 118.729 43.5243 119.577 44.0203C120.425 44.5163 121.105 45.2683 121.617 46.2763L119.409 47.6203C119.073 47.0123 118.665 46.5483 118.185 46.2283C117.705 45.8923 117.161 45.7243 116.553 45.7243C116.121 45.7243 115.729 45.8123 115.377 45.9883C115.025 46.1483 114.745 46.3803 114.537 46.6843C114.345 46.9883 114.249 47.3403 114.249 47.7403C114.249 48.1563 114.369 48.5243 114.609 48.8443C114.849 49.1483 115.217 49.4283 115.713 49.6843C116.225 49.9403 116.873 50.2203 117.657 50.5243C118.665 50.9083 119.521 51.3243 120.225 51.7723C120.929 52.2203 121.465 52.7563 121.833 53.3803C122.217 53.9883 122.409 54.7323 122.409 55.6123C122.409 56.5883 122.169 57.4523 121.689 58.2043C121.209 58.9563 120.537 59.5563 119.673 60.0043C118.825 60.4363 117.841 60.6523 116.721 60.6523ZM128.874 60.3403V46.0843H123.546V43.6123H136.986V46.0843H131.682V60.3403H128.874ZM145.169 60.6763C143.105 60.6763 141.529 60.1403 140.441 59.0683C139.369 57.9963 138.833 56.4043 138.833 54.2923V43.6123H141.617V53.9803C141.617 54.8923 141.721 55.6603 141.929 56.2843C142.153 56.8923 142.521 57.3563 143.033 57.6763C143.561 57.9803 144.273 58.1323 145.169 58.1323C146.065 58.1323 146.769 57.9723 147.281 57.6523C147.809 57.3323 148.185 56.8683 148.409 56.2603C148.633 55.6523 148.745 54.8923 148.745 53.9803V43.6123H151.505V54.1723C151.505 56.3323 150.969 57.9563 149.897 59.0443C148.825 60.1323 147.249 60.6763 145.169 60.6763ZM154.774 60.3403V43.6123H159.574C162.326 43.6123 164.462 44.3563 165.982 45.8443C167.502 47.3163 168.262 49.4043 168.262 52.1083C168.262 54.7643 167.51 56.8043 166.006 58.2283C164.518 59.6363 162.366 60.3403 159.55 60.3403H154.774ZM157.558 57.7963H159.286C160.582 57.7963 161.694 57.6203 162.622 57.2683C163.55 56.9003 164.254 56.2923 164.734 55.4443C165.214 54.5963 165.454 53.4523 165.454 52.0123C165.454 50.5723 165.214 49.4283 164.734 48.5803C164.27 47.7163 163.59 47.1003 162.694 46.7323C161.814 46.3483 160.758 46.1563 159.526 46.1563H157.558V57.7963ZM174.095 60.3403V53.8363L168.191 43.6123H171.359L175.415 51.0523L179.543 43.6123H182.687L176.879 53.8363V60.3403H174.095Z" fill="black" fill-opacity="0.2"/>
<path d="M1.84463 60.3403V43.6123H4.62863V50.4523H12.1646V43.6123H14.9486V60.3403H12.1646V53.0203H4.62863V60.3403H1.84463ZM25.5921 60.6763C24.0241 60.6763 22.6481 60.3163 21.4641 59.5963C20.2801 58.8763 19.3521 57.8603 18.6801 56.5483C18.0241 55.2363 17.6961 53.7163 17.6961 51.9883C17.6961 50.2443 18.0241 48.7163 18.6801 47.4043C19.3521 46.0923 20.2801 45.0763 21.4641 44.3563C22.6481 43.6363 24.0241 43.2763 25.5921 43.2763C27.1921 43.2763 28.5841 43.6363 29.7681 44.3563C30.9681 45.0763 31.8961 46.0923 32.5521 47.4043C33.2241 48.7003 33.5601 50.2283 33.5601 51.9883C33.5601 53.7323 33.2241 55.2603 32.5521 56.5723C31.8801 57.8683 30.9441 58.8763 29.7441 59.5963C28.5601 60.3163 27.1761 60.6763 25.5921 60.6763ZM25.5921 58.0363C26.6641 58.0363 27.5841 57.7883 28.3521 57.2923C29.1201 56.7963 29.7121 56.1003 30.1281 55.2043C30.5601 54.2923 30.7761 53.2203 30.7761 51.9883C30.7761 50.7403 30.5601 49.6683 30.1281 48.7723C29.7121 47.8603 29.1201 47.1563 28.3521 46.6603C27.5841 46.1643 26.6641 45.9163 25.5921 45.9163C24.5521 45.9163 23.6481 46.1643 22.8801 46.6603C22.1121 47.1403 21.5121 47.8363 21.0801 48.7483C20.6641 49.6443 20.4561 50.7243 20.4561 51.9883C20.4561 53.2363 20.6641 54.3163 21.0801 55.2283C21.4961 56.1243 22.0881 56.8203 22.8561 57.3163C23.6401 57.7963 24.5521 58.0363 25.5921 58.0363ZM36.3212 60.3403V43.6123H41.6732C43.0012 43.6123 44.0812 43.8123 44.9132 44.2123C45.7452 44.5963 46.3532 45.1483 46.7372 45.8683C47.1372 46.5883 47.3372 47.4363 47.3372 48.4123C47.3372 49.9003 46.9052 51.0603 46.0412 51.8923C45.1932 52.7083 43.9772 53.1803 42.3932 53.3083C42.0732 53.3083 41.7292 53.3083 41.3612 53.3083C40.9932 53.3083 40.6652 53.3083 40.3772 53.3083H39.1052V60.3403H36.3212ZM45.4892 60.3403L41.2412 52.9963L44.0972 52.6603L48.7052 60.3403H45.4892ZM39.1052 50.8603H41.3852C41.9932 50.8603 42.5292 50.7883 42.9932 50.6443C43.4732 50.5003 43.8492 50.2523 44.1212 49.9003C44.4092 49.5483 44.5532 49.0603 44.5532 48.4363C44.5532 47.8123 44.4092 47.3323 44.1212 46.9963C43.8492 46.6603 43.4732 46.4283 42.9932 46.3003C42.5132 46.1563 41.9772 46.0843 41.3852 46.0843H39.1052V50.8603ZM50.8056 60.3403V43.6123H53.5896V60.3403H50.8056ZM55.9851 60.3403V58.0363L65.8011 45.2203L66.2091 46.0843H56.5611V43.6123H68.6091V45.9163L59.0091 58.3963L58.6491 57.8683H68.8971V60.3403H55.9851ZM77.928 60.6763C76.36 60.6763 74.984 60.3163 73.8 59.5963C72.616 58.8763 71.688 57.8603 71.016 56.5483C70.36 55.2363 70.032 53.7163 70.032 51.9883C70.032 50.2443 70.36 48.7163 71.016 47.4043C71.688 46.0923 72.616 45.0763 73.8 44.3563C74.984 43.6363 76.36 43.2763 77.928 43.2763C79.528 43.2763 80.92 43.6363 82.104 44.3563C83.304 45.0763 84.232 46.0923 84.888 47.4043C85.56 48.7003 85.896 50.2283 85.896 51.9883C85.896 53.7323 85.56 55.2603 84.888 56.5723C84.216 57.8683 83.28 58.8763 82.08 59.5963C80.896 60.3163 79.512 60.6763 77.928 60.6763ZM77.928 58.0363C79 58.0363 79.92 57.7883 80.688 57.2923C81.456 56.7963 82.048 56.1003 82.464 55.2043C82.896 54.2923 83.112 53.2203 83.112 51.9883C83.112 50.7403 82.896 49.6683 82.464 48.7723C82.048 47.8603 81.456 47.1563 80.688 46.6603C79.92 46.1643 79 45.9163 77.928 45.9163C76.888 45.9163 75.984 46.1643 75.216 46.6603C74.448 47.1403 73.848 47.8363 73.416 48.7483C73 49.6443 72.792 50.7243 72.792 51.9883C72.792 53.2363 73 54.3163 73.416 55.2283C73.832 56.1243 74.424 56.8203 75.192 57.3163C75.976 57.7963 76.888 58.0363 77.928 58.0363ZM88.6571 60.3403V43.6123H91.5371L99.6011 56.7163H98.9051V43.6123H101.689V60.3403H98.7611L90.7691 47.2123H91.4411V60.3403H88.6571ZM116.721 60.6523C114.961 60.6523 113.521 60.1963 112.401 59.2843C111.297 58.3723 110.617 57.1563 110.361 55.6363L113.073 54.9643C113.249 56.0203 113.665 56.8203 114.321 57.3643C114.993 57.9083 115.817 58.1803 116.793 58.1803C117.337 58.1803 117.825 58.0843 118.257 57.8923C118.689 57.6843 119.025 57.3963 119.265 57.0283C119.521 56.6603 119.649 56.2443 119.649 55.7803C119.649 55.2843 119.513 54.8763 119.241 54.5563C118.969 54.2203 118.577 53.9243 118.065 53.6683C117.553 53.3963 116.929 53.1163 116.193 52.8283C115.185 52.4443 114.329 52.0283 113.625 51.5803C112.921 51.1323 112.385 50.6043 112.017 49.9963C111.649 49.3723 111.465 48.6363 111.465 47.7883C111.465 46.9083 111.681 46.1323 112.113 45.4603C112.545 44.7723 113.153 44.2363 113.937 43.8523C114.721 43.4683 115.625 43.2763 116.649 43.2763C117.753 43.2763 118.729 43.5243 119.577 44.0203C120.425 44.5163 121.105 45.2683 121.617 46.2763L119.409 47.6203C119.073 47.0123 118.665 46.5483 118.185 46.2283C117.705 45.8923 117.161 45.7243 116.553 45.7243C116.121 45.7243 115.729 45.8123 115.377 45.9883C115.025 46.1483 114.745 46.3803 114.537 46.6843C114.345 46.9883 114.249 47.3403 114.249 47.7403C114.249 48.1563 114.369 48.5243 114.609 48.8443C114.849 49.1483 115.217 49.4283 115.713 49.6843C116.225 49.9403 116.873 50.2203 117.657 50.5243C118.665 50.9083 119.521 51.3243 120.225 51.7723C120.929 52.2203 121.465 52.7563 121.833 53.3803C122.217 53.9883 122.409 54.7323 122.409 55.6123C122.409 56.5883 122.169 57.4523 121.689 58.2043C121.209 58.9563 120.537 59.5563 119.673 60.0043C118.825 60.4363 117.841 60.6523 116.721 60.6523ZM128.874 60.3403V46.0843H123.546V43.6123H136.986V46.0843H131.682V60.3403H128.874ZM145.169 60.6763C143.105 60.6763 141.529 60.1403 140.441 59.0683C139.369 57.9963 138.833 56.4043 138.833 54.2923V43.6123H141.617V53.9803C141.617 54.8923 141.721 55.6603 141.929 56.2843C142.153 56.8923 142.521 57.3563 143.033 57.6763C143.561 57.9803 144.273 58.1323 145.169 58.1323C146.065 58.1323 146.769 57.9723 147.281 57.6523C147.809 57.3323 148.185 56.8683 148.409 56.2603C148.633 55.6523 148.745 54.8923 148.745 53.9803V43.6123H151.505V54.1723C151.505 56.3323 150.969 57.9563 149.897 59.0443C148.825 60.1323 147.249 60.6763 145.169 60.6763ZM154.774 60.3403V43.6123H159.574C162.326 43.6123 164.462 44.3563 165.982 45.8443C167.502 47.3163 168.262 49.4043 168.262 52.1083C168.262 54.7643 167.51 56.8043 166.006 58.2283C164.518 59.6363 162.366 60.3403 159.55 60.3403H154.774ZM157.558 57.7963H159.286C160.582 57.7963 161.694 57.6203 162.622 57.2683C163.55 56.9003 164.254 56.2923 164.734 55.4443C165.214 54.5963 165.454 53.4523 165.454 52.0123C165.454 50.5723 165.214 49.4283 164.734 48.5803C164.27 47.7163 163.59 47.1003 162.694 46.7323C161.814 46.3483 160.758 46.1563 159.526 46.1563H157.558V57.7963ZM174.095 60.3403V53.8363L168.191 43.6123H171.359L175.415 51.0523L179.543 43.6123H182.687L176.879 53.8363V60.3403H174.095Z" fill="black" fill-opacity="0.2"/>
<path d="M1.84463 60.3403V43.6123H4.62863V50.4523H12.1646V43.6123H14.9486V60.3403H12.1646V53.0203H4.62863V60.3403H1.84463ZM25.5921 60.6763C24.0241 60.6763 22.6481 60.3163 21.4641 59.5963C20.2801 58.8763 19.3521 57.8603 18.6801 56.5483C18.0241 55.2363 17.6961 53.7163 17.6961 51.9883C17.6961 50.2443 18.0241 48.7163 18.6801 47.4043C19.3521 46.0923 20.2801 45.0763 21.4641 44.3563C22.6481 43.6363 24.0241 43.2763 25.5921 43.2763C27.1921 43.2763 28.5841 43.6363 29.7681 44.3563C30.9681 45.0763 31.8961 46.0923 32.5521 47.4043C33.2241 48.7003 33.5601 50.2283 33.5601 51.9883C33.5601 53.7323 33.2241 55.2603 32.5521 56.5723C31.8801 57.8683 30.9441 58.8763 29.7441 59.5963C28.5601 60.3163 27.1761 60.6763 25.5921 60.6763ZM25.5921 58.0363C26.6641 58.0363 27.5841 57.7883 28.3521 57.2923C29.1201 56.7963 29.7121 56.1003 30.1281 55.2043C30.5601 54.2923 30.7761 53.2203 30.7761 51.9883C30.7761 50.7403 30.5601 49.6683 30.1281 48.7723C29.7121 47.8603 29.1201 47.1563 28.3521 46.6603C27.5841 46.1643 26.6641 45.9163 25.5921 45.9163C24.5521 45.9163 23.6481 46.1643 22.8801 46.6603C22.1121 47.1403 21.5121 47.8363 21.0801 48.7483C20.6641 49.6443 20.4561 50.7243 20.4561 51.9883C20.4561 53.2363 20.6641 54.3163 21.0801 55.2283C21.4961 56.1243 22.0881 56.8203 22.8561 57.3163C23.6401 57.7963 24.5521 58.0363 25.5921 58.0363ZM36.3212 60.3403V43.6123H41.6732C43.0012 43.6123 44.0812 43.8123 44.9132 44.2123C45.7452 44.5963 46.3532 45.1483 46.7372 45.8683C47.1372 46.5883 47.3372 47.4363 47.3372 48.4123C47.3372 49.9003 46.9052 51.0603 46.0412 51.8923C45.1932 52.7083 43.9772 53.1803 42.3932 53.3083C42.0732 53.3083 41.7292 53.3083 41.3612 53.3083C40.9932 53.3083 40.6652 53.3083 40.3772 53.3083H39.1052V60.3403H36.3212ZM45.4892 60.3403L41.2412 52.9963L44.0972 52.6603L48.7052 60.3403H45.4892ZM39.1052 50.8603H41.3852C41.9932 50.8603 42.5292 50.7883 42.9932 50.6443C43.4732 50.5003 43.8492 50.2523 44.1212 49.9003C44.4092 49.5483 44.5532 49.0603 44.5532 48.4363C44.5532 47.8123 44.4092 47.3323 44.1212 46.9963C43.8492 46.6603 43.4732 46.4283 42.9932 46.3003C42.5132 46.1563 41.9772 46.0843 41.3852 46.0843H39.1052V50.8603ZM50.8056 60.3403V43.6123H53.5896V60.3403H50.8056ZM55.9851 60.3403V58.0363L65.8011 45.2203L66.2091 46.0843H56.5611V43.6123H68.6091V45.9163L59.0091 58.3963L58.6491 57.8683H68.8971V60.3403H55.9851ZM77.928 60.6763C76.36 60.6763 74.984 60.3163 73.8 59.5963C72.616 58.8763 71.688 57.8603 71.016 56.5483C70.36 55.2363 70.032 53.7163 70.032 51.9883C70.032 50.2443 70.36 48.7163 71.016 47.4043C71.688 46.0923 72.616 45.0763 73.8 44.3563C74.984 43.6363 76.36 43.2763 77.928 43.2763C79.528 43.2763 80.92 43.6363 82.104 44.3563C83.304 45.0763 84.232 46.0923 84.888 47.4043C85.56 48.7003 85.896 50.2283 85.896 51.9883C85.896 53.7323 85.56 55.2603 84.888 56.5723C84.216 57.8683 83.28 58.8763 82.08 59.5963C80.896 60.3163 79.512 60.6763 77.928 60.6763ZM77.928 58.0363C79 58.0363 79.92 57.7883 80.688 57.2923C81.456 56.7963 82.048 56.1003 82.464 55.2043C82.896 54.2923 83.112 53.2203 83.112 51.9883C83.112 50.7403 82.896 49.6683 82.464 48.7723C82.048 47.8603 81.456 47.1563 80.688 46.6603C79.92 46.1643 79 45.9163 77.928 45.9163C76.888 45.9163 75.984 46.1643 75.216 46.6603C74.448 47.1403 73.848 47.8363 73.416 48.7483C73 49.6443 72.792 50.7243 72.792 51.9883C72.792 53.2363 73 54.3163 73.416 55.2283C73.832 56.1243 74.424 56.8203 75.192 57.3163C75.976 57.7963 76.888 58.0363 77.928 58.0363ZM88.6571 60.3403V43.6123H91.5371L99.6011 56.7163H98.9051V43.6123H101.689V60.3403H98.7611L90.7691 47.2123H91.4411V60.3403H88.6571ZM116.721 60.6523C114.961 60.6523 113.521 60.1963 112.401 59.2843C111.297 58.3723 110.617 57.1563 110.361 55.6363L113.073 54.9643C113.249 56.0203 113.665 56.8203 114.321 57.3643C114.993 57.9083 115.817 58.1803 116.793 58.1803C117.337 58.1803 117.825 58.0843 118.257 57.8923C118.689 57.6843 119.025 57.3963 119.265 57.0283C119.521 56.6603 119.649 56.2443 119.649 55.7803C119.649 55.2843 119.513 54.8763 119.241 54.5563C118.969 54.2203 118.577 53.9243 118.065 53.6683C117.553 53.3963 116.929 53.1163 116.193 52.8283C115.185 52.4443 114.329 52.0283 113.625 51.5803C112.921 51.1323 112.385 50.6043 112.017 49.9963C111.649 49.3723 111.465 48.6363 111.465 47.7883C111.465 46.9083 111.681 46.1323 112.113 45.4603C112.545 44.7723 113.153 44.2363 113.937 43.8523C114.721 43.4683 115.625 43.2763 116.649 43.2763C117.753 43.2763 118.729 43.5243 119.577 44.0203C120.425 44.5163 121.105 45.2683 121.617 46.2763L119.409 47.6203C119.073 47.0123 118.665 46.5483 118.185 46.2283C117.705 45.8923 117.161 45.7243 116.553 45.7243C116.121 45.7243 115.729 45.8123 115.377 45.9883C115.025 46.1483 114.745 46.3803 114.537 46.6843C114.345 46.9883 114.249 47.3403 114.249 47.7403C114.249 48.1563 114.369 48.5243 114.609 48.8443C114.849 49.1483 115.217 49.4283 115.713 49.6843C116.225 49.9403 116.873 50.2203 117.657 50.5243C118.665 50.9083 119.521 51.3243 120.225 51.7723C120.929 52.2203 121.465 52.7563 121.833 53.3803C122.217 53.9883 122.409 54.7323 122.409 55.6123C122.409 56.5883 122.169 57.4523 121.689 58.2043C121.209 58.9563 120.537 59.5563 119.673 60.0043C118.825 60.4363 117.841 60.6523 116.721 60.6523ZM128.874 60.3403V46.0843H123.546V43.6123H136.986V46.0843H131.682V60.3403H128.874ZM145.169 60.6763C143.105 60.6763 141.529 60.1403 140.441 59.0683C139.369 57.9963 138.833 56.4043 138.833 54.2923V43.6123H141.617V53.9803C141.617 54.8923 141.721 55.6603 141.929 56.2843C142.153 56.8923 142.521 57.3563 143.033 57.6763C143.561 57.9803 144.273 58.1323 145.169 58.1323C146.065 58.1323 146.769 57.9723 147.281 57.6523C147.809 57.3323 148.185 56.8683 148.409 56.2603C148.633 55.6523 148.745 54.8923 148.745 53.9803V43.6123H151.505V54.1723C151.505 56.3323 150.969 57.9563 149.897 59.0443C148.825 60.1323 147.249 60.6763 145.169 60.6763ZM154.774 60.3403V43.6123H159.574C162.326 43.6123 164.462 44.3563 165.982 45.8443C167.502 47.3163 168.262 49.4043 168.262 52.1083C168.262 54.7643 167.51 56.8043 166.006 58.2283C164.518 59.6363 162.366 60.3403 159.55 60.3403H154.774ZM157.558 57.7963H159.286C160.582 57.7963 161.694 57.6203 162.622 57.2683C163.55 56.9003 164.254 56.2923 164.734 55.4443C165.214 54.5963 165.454 53.4523 165.454 52.0123C165.454 50.5723 165.214 49.4283 164.734 48.5803C164.27 47.7163 163.59 47.1003 162.694 46.7323C161.814 46.3483 160.758 46.1563 159.526 46.1563H157.558V57.7963ZM174.095 60.3403V53.8363L168.191 43.6123H171.359L175.415 51.0523L179.543 43.6123H182.687L176.879 53.8363V60.3403H174.095Z" fill="black" fill-opacity="0.2"/>
<path d="M1.84463 60.3403V43.6123H4.62863V50.4523H12.1646V43.6123H14.9486V60.3403H12.1646V53.0203H4.62863V60.3403H1.84463ZM25.5921 60.6763C24.0241 60.6763 22.6481 60.3163 21.4641 59.5963C20.2801 58.8763 19.3521 57.8603 18.6801 56.5483C18.0241 55.2363 17.6961 53.7163 17.6961 51.9883C17.6961 50.2443 18.0241 48.7163 18.6801 47.4043C19.3521 46.0923 20.2801 45.0763 21.4641 44.3563C22.6481 43.6363 24.0241 43.2763 25.5921 43.2763C27.1921 43.2763 28.5841 43.6363 29.7681 44.3563C30.9681 45.0763 31.8961 46.0923 32.5521 47.4043C33.2241 48.7003 33.5601 50.2283 33.5601 51.9883C33.5601 53.7323 33.2241 55.2603 32.5521 56.5723C31.8801 57.8683 30.9441 58.8763 29.7441 59.5963C28.5601 60.3163 27.1761 60.6763 25.5921 60.6763ZM25.5921 58.0363C26.6641 58.0363 27.5841 57.7883 28.3521 57.2923C29.1201 56.7963 29.7121 56.1003 30.1281 55.2043C30.5601 54.2923 30.7761 53.2203 30.7761 51.9883C30.7761 50.7403 30.5601 49.6683 30.1281 48.7723C29.7121 47.8603 29.1201 47.1563 28.3521 46.6603C27.5841 46.1643 26.6641 45.9163 25.5921 45.9163C24.5521 45.9163 23.6481 46.1643 22.8801 46.6603C22.1121 47.1403 21.5121 47.8363 21.0801 48.7483C20.6641 49.6443 20.4561 50.7243 20.4561 51.9883C20.4561 53.2363 20.6641 54.3163 21.0801 55.2283C21.4961 56.1243 22.0881 56.8203 22.8561 57.3163C23.6401 57.7963 24.5521 58.0363 25.5921 58.0363ZM36.3212 60.3403V43.6123H41.6732C43.0012 43.6123 44.0812 43.8123 44.9132 44.2123C45.7452 44.5963 46.3532 45.1483 46.7372 45.8683C47.1372 46.5883 47.3372 47.4363 47.3372 48.4123C47.3372 49.9003 46.9052 51.0603 46.0412 51.8923C45.1932 52.7083 43.9772 53.1803 42.3932 53.3083C42.0732 53.3083 41.7292 53.3083 41.3612 53.3083C40.9932 53.3083 40.6652 53.3083 40.3772 53.3083H39.1052V60.3403H36.3212ZM45.4892 60.3403L41.2412 52.9963L44.0972 52.6603L48.7052 60.3403H45.4892ZM39.1052 50.8603H41.3852C41.9932 50.8603 42.5292 50.7883 42.9932 50.6443C43.4732 50.5003 43.8492 50.2523 44.1212 49.9003C44.4092 49.5483 44.5532 49.0603 44.5532 48.4363C44.5532 47.8123 44.4092 47.3323 44.1212 46.9963C43.8492 46.6603 43.4732 46.4283 42.9932 46.3003C42.5132 46.1563 41.9772 46.0843 41.3852 46.0843H39.1052V50.8603ZM50.8056 60.3403V43.6123H53.5896V60.3403H50.8056ZM55.9851 60.3403V58.0363L65.8011 45.2203L66.2091 46.0843H56.5611V43.6123H68.6091V45.9163L59.0091 58.3963L58.6491 57.8683H68.8971V60.3403H55.9851ZM77.928 60.6763C76.36 60.6763 74.984 60.3163 73.8 59.5963C72.616 58.8763 71.688 57.8603 71.016 56.5483C70.36 55.2363 70.032 53.7163 70.032 51.9883C70.032 50.2443 70.36 48.7163 71.016 47.4043C71.688 46.0923 72.616 45.0763 73.8 44.3563C74.984 43.6363 76.36 43.2763 77.928 43.2763C79.528 43.2763 80.92 43.6363 82.104 44.3563C83.304 45.0763 84.232 46.0923 84.888 47.4043C85.56 48.7003 85.896 50.2283 85.896 51.9883C85.896 53.7323 85.56 55.2603 84.888 56.5723C84.216 57.8683 83.28 58.8763 82.08 59.5963C80.896 60.3163 79.512 60.6763 77.928 60.6763ZM77.928 58.0363C79 58.0363 79.92 57.7883 80.688 57.2923C81.456 56.7963 82.048 56.1003 82.464 55.2043C82.896 54.2923 83.112 53.2203 83.112 51.9883C83.112 50.7403 82.896 49.6683 82.464 48.7723C82.048 47.8603 81.456 47.1563 80.688 46.6603C79.92 46.1643 79 45.9163 77.928 45.9163C76.888 45.9163 75.984 46.1643 75.216 46.6603C74.448 47.1403 73.848 47.8363 73.416 48.7483C73 49.6443 72.792 50.7243 72.792 51.9883C72.792 53.2363 73 54.3163 73.416 55.2283C73.832 56.1243 74.424 56.8203 75.192 57.3163C75.976 57.7963 76.888 58.0363 77.928 58.0363ZM88.6571 60.3403V43.6123H91.5371L99.6011 56.7163H98.9051V43.6123H101.689V60.3403H98.7611L90.7691 47.2123H91.4411V60.3403H88.6571ZM116.721 60.6523C114.961 60.6523 113.521 60.1963 112.401 59.2843C111.297 58.3723 110.617 57.1563 110.361 55.6363L113.073 54.9643C113.249 56.0203 113.665 56.8203 114.321 57.3643C114.993 57.9083 115.817 58.1803 116.793 58.1803C117.337 58.1803 117.825 58.0843 118.257 57.8923C118.689 57.6843 119.025 57.3963 119.265 57.0283C119.521 56.6603 119.649 56.2443 119.649 55.7803C119.649 55.2843 119.513 54.8763 119.241 54.5563C118.969 54.2203 118.577 53.9243 118.065 53.6683C117.553 53.3963 116.929 53.1163 116.193 52.8283C115.185 52.4443 114.329 52.0283 113.625 51.5803C112.921 51.1323 112.385 50.6043 112.017 49.9963C111.649 49.3723 111.465 48.6363 111.465 47.7883C111.465 46.9083 111.681 46.1323 112.113 45.4603C112.545 44.7723 113.153 44.2363 113.937 43.8523C114.721 43.4683 115.625 43.2763 116.649 43.2763C117.753 43.2763 118.729 43.5243 119.577 44.0203C120.425 44.5163 121.105 45.2683 121.617 46.2763L119.409 47.6203C119.073 47.0123 118.665 46.5483 118.185 46.2283C117.705 45.8923 117.161 45.7243 116.553 45.7243C116.121 45.7243 115.729 45.8123 115.377 45.9883C115.025 46.1483 114.745 46.3803 114.537 46.6843C114.345 46.9883 114.249 47.3403 114.249 47.7403C114.249 48.1563 114.369 48.5243 114.609 48.8443C114.849 49.1483 115.217 49.4283 115.713 49.6843C116.225 49.9403 116.873 50.2203 117.657 50.5243C118.665 50.9083 119.521 51.3243 120.225 51.7723C120.929 52.2203 121.465 52.7563 121.833 53.3803C122.217 53.9883 122.409 54.7323 122.409 55.6123C122.409 56.5883 122.169 57.4523 121.689 58.2043C121.209 58.9563 120.537 59.5563 119.673 60.0043C118.825 60.4363 117.841 60.6523 116.721 60.6523ZM128.874 60.3403V46.0843H123.546V43.6123H136.986V46.0843H131.682V60.3403H128.874ZM145.169 60.6763C143.105 60.6763 141.529 60.1403 140.441 59.0683C139.369 57.9963 138.833 56.4043 138.833 54.2923V43.6123H141.617V53.9803C141.617 54.8923 141.721 55.6603 141.929 56.2843C142.153 56.8923 142.521 57.3563 143.033 57.6763C143.561 57.9803 144.273 58.1323 145.169 58.1323C146.065 58.1323 146.769 57.9723 147.281 57.6523C147.809 57.3323 148.185 56.8683 148.409 56.2603C148.633 55.6523 148.745 54.8923 148.745 53.9803V43.6123H151.505V54.1723C151.505 56.3323 150.969 57.9563 149.897 59.0443C148.825 60.1323 147.249 60.6763 145.169 60.6763ZM154.774 60.3403V43.6123H159.574C162.326 43.6123 164.462 44.3563 165.982 45.8443C167.502 47.3163 168.262 49.4043 168.262 52.1083C168.262 54.7643 167.51 56.8043 166.006 58.2283C164.518 59.6363 162.366 60.3403 159.55 60.3403H154.774ZM157.558 57.7963H159.286C160.582 57.7963 161.694 57.6203 162.622 57.2683C163.55 56.9003 164.254 56.2923 164.734 55.4443C165.214 54.5963 165.454 53.4523 165.454 52.0123C165.454 50.5723 165.214 49.4283 164.734 48.5803C164.27 47.7163 163.59 47.1003 162.694 46.7323C161.814 46.3483 160.758 46.1563 159.526 46.1563H157.558V57.7963ZM174.095 60.3403V53.8363L168.191 43.6123H171.359L175.415 51.0523L179.543 43.6123H182.687L176.879 53.8363V60.3403H174.095Z" fill="black" fill-opacity="0.2"/>
<path d="M1.84463 60.3403V43.6123H4.62863V50.4523H12.1646V43.6123H14.9486V60.3403H12.1646V53.0203H4.62863V60.3403H1.84463ZM25.5921 60.6763C24.0241 60.6763 22.6481 60.3163 21.4641 59.5963C20.2801 58.8763 19.3521 57.8603 18.6801 56.5483C18.0241 55.2363 17.6961 53.7163 17.6961 51.9883C17.6961 50.2443 18.0241 48.7163 18.6801 47.4043C19.3521 46.0923 20.2801 45.0763 21.4641 44.3563C22.6481 43.6363 24.0241 43.2763 25.5921 43.2763C27.1921 43.2763 28.5841 43.6363 29.7681 44.3563C30.9681 45.0763 31.8961 46.0923 32.5521 47.4043C33.2241 48.7003 33.5601 50.2283 33.5601 51.9883C33.5601 53.7323 33.2241 55.2603 32.5521 56.5723C31.8801 57.8683 30.9441 58.8763 29.7441 59.5963C28.5601 60.3163 27.1761 60.6763 25.5921 60.6763ZM25.5921 58.0363C26.6641 58.0363 27.5841 57.7883 28.3521 57.2923C29.1201 56.7963 29.7121 56.1003 30.1281 55.2043C30.5601 54.2923 30.7761 53.2203 30.7761 51.9883C30.7761 50.7403 30.5601 49.6683 30.1281 48.7723C29.7121 47.8603 29.1201 47.1563 28.3521 46.6603C27.5841 46.1643 26.6641 45.9163 25.5921 45.9163C24.5521 45.9163 23.6481 46.1643 22.8801 46.6603C22.1121 47.1403 21.5121 47.8363 21.0801 48.7483C20.6641 49.6443 20.4561 50.7243 20.4561 51.9883C20.4561 53.2363 20.6641 54.3163 21.0801 55.2283C21.4961 56.1243 22.0881 56.8203 22.8561 57.3163C23.6401 57.7963 24.5521 58.0363 25.5921 58.0363ZM36.3212 60.3403V43.6123H41.6732C43.0012 43.6123 44.0812 43.8123 44.9132 44.2123C45.7452 44.5963 46.3532 45.1483 46.7372 45.8683C47.1372 46.5883 47.3372 47.4363 47.3372 48.4123C47.3372 49.9003 46.9052 51.0603 46.0412 51.8923C45.1932 52.7083 43.9772 53.1803 42.3932 53.3083C42.0732 53.3083 41.7292 53.3083 41.3612 53.3083C40.9932 53.3083 40.6652 53.3083 40.3772 53.3083H39.1052V60.3403H36.3212ZM45.4892 60.3403L41.2412 52.9963L44.0972 52.6603L48.7052 60.3403H45.4892ZM39.1052 50.8603H41.3852C41.9932 50.8603 42.5292 50.7883 42.9932 50.6443C43.4732 50.5003 43.8492 50.2523 44.1212 49.9003C44.4092 49.5483 44.5532 49.0603 44.5532 48.4363C44.5532 47.8123 44.4092 47.3323 44.1212 46.9963C43.8492 46.6603 43.4732 46.4283 42.9932 46.3003C42.5132 46.1563 41.9772 46.0843 41.3852 46.0843H39.1052V50.8603ZM50.8056 60.3403V43.6123H53.5896V60.3403H50.8056ZM55.9851 60.3403V58.0363L65.8011 45.2203L66.2091 46.0843H56.5611V43.6123H68.6091V45.9163L59.0091 58.3963L58.6491 57.8683H68.8971V60.3403H55.9851ZM77.928 60.6763C76.36 60.6763 74.984 60.3163 73.8 59.5963C72.616 58.8763 71.688 57.8603 71.016 56.5483C70.36 55.2363 70.032 53.7163 70.032 51.9883C70.032 50.2443 70.36 48.7163 71.016 47.4043C71.688 46.0923 72.616 45.0763 73.8 44.3563C74.984 43.6363 76.36 43.2763 77.928 43.2763C79.528 43.2763 80.92 43.6363 82.104 44.3563C83.304 45.0763 84.232 46.0923 84.888 47.4043C85.56 48.7003 85.896 50.2283 85.896 51.9883C85.896 53.7323 85.56 55.2603 84.888 56.5723C84.216 57.8683 83.28 58.8763 82.08 59.5963C80.896 60.3163 79.512 60.6763 77.928 60.6763ZM77.928 58.0363C79 58.0363 79.92 57.7883 80.688 57.2923C81.456 56.7963 82.048 56.1003 82.464 55.2043C82.896 54.2923 83.112 53.2203 83.112 51.9883C83.112 50.7403 82.896 49.6683 82.464 48.7723C82.048 47.8603 81.456 47.1563 80.688 46.6603C79.92 46.1643 79 45.9163 77.928 45.9163C76.888 45.9163 75.984 46.1643 75.216 46.6603C74.448 47.1403 73.848 47.8363 73.416 48.7483C73 49.6443 72.792 50.7243 72.792 51.9883C72.792 53.2363 73 54.3163 73.416 55.2283C73.832 56.1243 74.424 56.8203 75.192 57.3163C75.976 57.7963 76.888 58.0363 77.928 58.0363ZM88.6571 60.3403V43.6123H91.5371L99.6011 56.7163H98.9051V43.6123H101.689V60.3403H98.7611L90.7691 47.2123H91.4411V60.3403H88.6571ZM116.721 60.6523C114.961 60.6523 113.521 60.1963 112.401 59.2843C111.297 58.3723 110.617 57.1563 110.361 55.6363L113.073 54.9643C113.249 56.0203 113.665 56.8203 114.321 57.3643C114.993 57.9083 115.817 58.1803 116.793 58.1803C117.337 58.1803 117.825 58.0843 118.257 57.8923C118.689 57.6843 119.025 57.3963 119.265 57.0283C119.521 56.6603 119.649 56.2443 119.649 55.7803C119.649 55.2843 119.513 54.8763 119.241 54.5563C118.969 54.2203 118.577 53.9243 118.065 53.6683C117.553 53.3963 116.929 53.1163 116.193 52.8283C115.185 52.4443 114.329 52.0283 113.625 51.5803C112.921 51.1323 112.385 50.6043 112.017 49.9963C111.649 49.3723 111.465 48.6363 111.465 47.7883C111.465 46.9083 111.681 46.1323 112.113 45.4603C112.545 44.7723 113.153 44.2363 113.937 43.8523C114.721 43.4683 115.625 43.2763 116.649 43.2763C117.753 43.2763 118.729 43.5243 119.577 44.0203C120.425 44.5163 121.105 45.2683 121.617 46.2763L119.409 47.6203C119.073 47.0123 118.665 46.5483 118.185 46.2283C117.705 45.8923 117.161 45.7243 116.553 45.7243C116.121 45.7243 115.729 45.8123 115.377 45.9883C115.025 46.1483 114.745 46.3803 114.537 46.6843C114.345 46.9883 114.249 47.3403 114.249 47.7403C114.249 48.1563 114.369 48.5243 114.609 48.8443C114.849 49.1483 115.217 49.4283 115.713 49.6843C116.225 49.9403 116.873 50.2203 117.657 50.5243C118.665 50.9083 119.521 51.3243 120.225 51.7723C120.929 52.2203 121.465 52.7563 121.833 53.3803C122.217 53.9883 122.409 54.7323 122.409 55.6123C122.409 56.5883 122.169 57.4523 121.689 58.2043C121.209 58.9563 120.537 59.5563 119.673 60.0043C118.825 60.4363 117.841 60.6523 116.721 60.6523ZM128.874 60.3403V46.0843H123.546V43.6123H136.986V46.0843H131.682V60.3403H128.874ZM145.169 60.6763C143.105 60.6763 141.529 60.1403 140.441 59.0683C139.369 57.9963 138.833 56.4043 138.833 54.2923V43.6123H141.617V53.9803C141.617 54.8923 141.721 55.6603 141.929 56.2843C142.153 56.8923 142.521 57.3563 143.033 57.6763C143.561 57.9803 144.273 58.1323 145.169 58.1323C146.065 58.1323 146.769 57.9723 147.281 57.6523C147.809 57.3323 148.185 56.8683 148.409 56.2603C148.633 55.6523 148.745 54.8923 148.745 53.9803V43.6123H151.505V54.1723C151.505 56.3323 150.969 57.9563 149.897 59.0443C148.825 60.1323 147.249 60.6763 145.169 60.6763ZM154.774 60.3403V43.6123H159.574C162.326 43.6123 164.462 44.3563 165.982 45.8443C167.502 47.3163 168.262 49.4043 168.262 52.1083C168.262 54.7643 167.51 56.8043 166.006 58.2283C164.518 59.6363 162.366 60.3403 159.55 60.3403H154.774ZM157.558 57.7963H159.286C160.582 57.7963 161.694 57.6203 162.622 57.2683C163.55 56.9003 164.254 56.2923 164.734 55.4443C165.214 54.5963 165.454 53.4523 165.454 52.0123C165.454 50.5723 165.214 49.4283 164.734 48.5803C164.27 47.7163 163.59 47.1003 162.694 46.7323C161.814 46.3483 160.758 46.1563 159.526 46.1563H157.558V57.7963ZM174.095 60.3403V53.8363L168.191 43.6123H171.359L175.415 51.0523L179.543 43.6123H182.687L176.879 53.8363V60.3403H174.095Z" fill="black" fill-opacity="0.2"/>
<path d="M1.84463 60.3403V43.6123H4.62863V50.4523H12.1646V43.6123H14.9486V60.3403H12.1646V53.0203H4.62863V60.3403H1.84463ZM25.5921 60.6763C24.0241 60.6763 22.6481 60.3163 21.4641 59.5963C20.2801 58.8763 19.3521 57.8603 18.6801 56.5483C18.0241 55.2363 17.6961 53.7163 17.6961 51.9883C17.6961 50.2443 18.0241 48.7163 18.6801 47.4043C19.3521 46.0923 20.2801 45.0763 21.4641 44.3563C22.6481 43.6363 24.0241 43.2763 25.5921 43.2763C27.1921 43.2763 28.5841 43.6363 29.7681 44.3563C30.9681 45.0763 31.8961 46.0923 32.5521 47.4043C33.2241 48.7003 33.5601 50.2283 33.5601 51.9883C33.5601 53.7323 33.2241 55.2603 32.5521 56.5723C31.8801 57.8683 30.9441 58.8763 29.7441 59.5963C28.5601 60.3163 27.1761 60.6763 25.5921 60.6763ZM25.5921 58.0363C26.6641 58.0363 27.5841 57.7883 28.3521 57.2923C29.1201 56.7963 29.7121 56.1003 30.1281 55.2043C30.5601 54.2923 30.7761 53.2203 30.7761 51.9883C30.7761 50.7403 30.5601 49.6683 30.1281 48.7723C29.7121 47.8603 29.1201 47.1563 28.3521 46.6603C27.5841 46.1643 26.6641 45.9163 25.5921 45.9163C24.5521 45.9163 23.6481 46.1643 22.8801 46.6603C22.1121 47.1403 21.5121 47.8363 21.0801 48.7483C20.6641 49.6443 20.4561 50.7243 20.4561 51.9883C20.4561 53.2363 20.6641 54.3163 21.0801 55.2283C21.4961 56.1243 22.0881 56.8203 22.8561 57.3163C23.6401 57.7963 24.5521 58.0363 25.5921 58.0363ZM36.3212 60.3403V43.6123H41.6732C43.0012 43.6123 44.0812 43.8123 44.9132 44.2123C45.7452 44.5963 46.3532 45.1483 46.7372 45.8683C47.1372 46.5883 47.3372 47.4363 47.3372 48.4123C47.3372 49.9003 46.9052 51.0603 46.0412 51.8923C45.1932 52.7083 43.9772 53.1803 42.3932 53.3083C42.0732 53.3083 41.7292 53.3083 41.3612 53.3083C40.9932 53.3083 40.6652 53.3083 40.3772 53.3083H39.1052V60.3403H36.3212ZM45.4892 60.3403L41.2412 52.9963L44.0972 52.6603L48.7052 60.3403H45.4892ZM39.1052 50.8603H41.3852C41.9932 50.8603 42.5292 50.7883 42.9932 50.6443C43.4732 50.5003 43.8492 50.2523 44.1212 49.9003C44.4092 49.5483 44.5532 49.0603 44.5532 48.4363C44.5532 47.8123 44.4092 47.3323 44.1212 46.9963C43.8492 46.6603 43.4732 46.4283 42.9932 46.3003C42.5132 46.1563 41.9772 46.0843 41.3852 46.0843H39.1052V50.8603ZM50.8056 60.3403V43.6123H53.5896V60.3403H50.8056ZM55.9851 60.3403V58.0363L65.8011 45.2203L66.2091 46.0843H56.5611V43.6123H68.6091V45.9163L59.0091 58.3963L58.6491 57.8683H68.8971V60.3403H55.9851ZM77.928 60.6763C76.36 60.6763 74.984 60.3163 73.8 59.5963C72.616 58.8763 71.688 57.8603 71.016 56.5483C70.36 55.2363 70.032 53.7163 70.032 51.9883C70.032 50.2443 70.36 48.7163 71.016 47.4043C71.688 46.0923 72.616 45.0763 73.8 44.3563C74.984 43.6363 76.36 43.2763 77.928 43.2763C79.528 43.2763 80.92 43.6363 82.104 44.3563C83.304 45.0763 84.232 46.0923 84.888 47.4043C85.56 48.7003 85.896 50.2283 85.896 51.9883C85.896 53.7323 85.56 55.2603 84.888 56.5723C84.216 57.8683 83.28 58.8763 82.08 59.5963C80.896 60.3163 79.512 60.6763 77.928 60.6763ZM77.928 58.0363C79 58.0363 79.92 57.7883 80.688 57.2923C81.456 56.7963 82.048 56.1003 82.464 55.2043C82.896 54.2923 83.112 53.2203 83.112 51.9883C83.112 50.7403 82.896 49.6683 82.464 48.7723C82.048 47.8603 81.456 47.1563 80.688 46.6603C79.92 46.1643 79 45.9163 77.928 45.9163C76.888 45.9163 75.984 46.1643 75.216 46.6603C74.448 47.1403 73.848 47.8363 73.416 48.7483C73 49.6443 72.792 50.7243 72.792 51.9883C72.792 53.2363 73 54.3163 73.416 55.2283C73.832 56.1243 74.424 56.8203 75.192 57.3163C75.976 57.7963 76.888 58.0363 77.928 58.0363ZM88.6571 60.3403V43.6123H91.5371L99.6011 56.7163H98.9051V43.6123H101.689V60.3403H98.7611L90.7691 47.2123H91.4411V60.3403H88.6571ZM116.721 60.6523C114.961 60.6523 113.521 60.1963 112.401 59.2843C111.297 58.3723 110.617 57.1563 110.361 55.6363L113.073 54.9643C113.249 56.0203 113.665 56.8203 114.321 57.3643C114.993 57.9083 115.817 58.1803 116.793 58.1803C117.337 58.1803 117.825 58.0843 118.257 57.8923C118.689 57.6843 119.025 57.3963 119.265 57.0283C119.521 56.6603 119.649 56.2443 119.649 55.7803C119.649 55.2843 119.513 54.8763 119.241 54.5563C118.969 54.2203 118.577 53.9243 118.065 53.6683C117.553 53.3963 116.929 53.1163 116.193 52.8283C115.185 52.4443 114.329 52.0283 113.625 51.5803C112.921 51.1323 112.385 50.6043 112.017 49.9963C111.649 49.3723 111.465 48.6363 111.465 47.7883C111.465 46.9083 111.681 46.1323 112.113 45.4603C112.545 44.7723 113.153 44.2363 113.937 43.8523C114.721 43.4683 115.625 43.2763 116.649 43.2763C117.753 43.2763 118.729 43.5243 119.577 44.0203C120.425 44.5163 121.105 45.2683 121.617 46.2763L119.409 47.6203C119.073 47.0123 118.665 46.5483 118.185 46.2283C117.705 45.8923 117.161 45.7243 116.553 45.7243C116.121 45.7243 115.729 45.8123 115.377 45.9883C115.025 46.1483 114.745 46.3803 114.537 46.6843C114.345 46.9883 114.249 47.3403 114.249 47.7403C114.249 48.1563 114.369 48.5243 114.609 48.8443C114.849 49.1483 115.217 49.4283 115.713 49.6843C116.225 49.9403 116.873 50.2203 117.657 50.5243C118.665 50.9083 119.521 51.3243 120.225 51.7723C120.929 52.2203 121.465 52.7563 121.833 53.3803C122.217 53.9883 122.409 54.7323 122.409 55.6123C122.409 56.5883 122.169 57.4523 121.689 58.2043C121.209 58.9563 120.537 59.5563 119.673 60.0043C118.825 60.4363 117.841 60.6523 116.721 60.6523ZM128.874 60.3403V46.0843H123.546V43.6123H136.986V46.0843H131.682V60.3403H128.874ZM145.169 60.6763C143.105 60.6763 141.529 60.1403 140.441 59.0683C139.369 57.9963 138.833 56.4043 138.833 54.2923V43.6123H141.617V53.9803C141.617 54.8923 141.721 55.6603 141.929 56.2843C142.153 56.8923 142.521 57.3563 143.033 57.6763C143.561 57.9803 144.273 58.1323 145.169 58.1323C146.065 58.1323 146.769 57.9723 147.281 57.6523C147.809 57.3323 148.185 56.8683 148.409 56.2603C148.633 55.6523 148.745 54.8923 148.745 53.9803V43.6123H151.505V54.1723C151.505 56.3323 150.969 57.9563 149.897 59.0443C148.825 60.1323 147.249 60.6763 145.169 60.6763ZM154.774 60.3403V43.6123H159.574C162.326 43.6123 164.462 44.3563 165.982 45.8443C167.502 47.3163 168.262 49.4043 168.262 52.1083C168.262 54.7643 167.51 56.8043 166.006 58.2283C164.518 59.6363 162.366 60.3403 159.55 60.3403H154.774ZM157.558 57.7963H159.286C160.582 57.7963 161.694 57.6203 162.622 57.2683C163.55 56.9003 164.254 56.2923 164.734 55.4443C165.214 54.5963 165.454 53.4523 165.454 52.0123C165.454 50.5723 165.214 49.4283 164.734 48.5803C164.27 47.7163 163.59 47.1003 162.694 46.7323C161.814 46.3483 160.758 46.1563 159.526 46.1563H157.558V57.7963ZM174.095 60.3403V53.8363L168.191 43.6123H171.359L175.415 51.0523L179.543 43.6123H182.687L176.879 53.8363V60.3403H174.095Z" fill="black" fill-opacity="0.2"/>
<path d="M1.84463 60.3403V43.6123H4.62863V50.4523H12.1646V43.6123H14.9486V60.3403H12.1646V53.0203H4.62863V60.3403H1.84463ZM25.5921 60.6763C24.0241 60.6763 22.6481 60.3163 21.4641 59.5963C20.2801 58.8763 19.3521 57.8603 18.6801 56.5483C18.0241 55.2363 17.6961 53.7163 17.6961 51.9883C17.6961 50.2443 18.0241 48.7163 18.6801 47.4043C19.3521 46.0923 20.2801 45.0763 21.4641 44.3563C22.6481 43.6363 24.0241 43.2763 25.5921 43.2763C27.1921 43.2763 28.5841 43.6363 29.7681 44.3563C30.9681 45.0763 31.8961 46.0923 32.5521 47.4043C33.2241 48.7003 33.5601 50.2283 33.5601 51.9883C33.5601 53.7323 33.2241 55.2603 32.5521 56.5723C31.8801 57.8683 30.9441 58.8763 29.7441 59.5963C28.5601 60.3163 27.1761 60.6763 25.5921 60.6763ZM25.5921 58.0363C26.6641 58.0363 27.5841 57.7883 28.3521 57.2923C29.1201 56.7963 29.7121 56.1003 30.1281 55.2043C30.5601 54.2923 30.7761 53.2203 30.7761 51.9883C30.7761 50.7403 30.5601 49.6683 30.1281 48.7723C29.7121 47.8603 29.1201 47.1563 28.3521 46.6603C27.5841 46.1643 26.6641 45.9163 25.5921 45.9163C24.5521 45.9163 23.6481 46.1643 22.8801 46.6603C22.1121 47.1403 21.5121 47.8363 21.0801 48.7483C20.6641 49.6443 20.4561 50.7243 20.4561 51.9883C20.4561 53.2363 20.6641 54.3163 21.0801 55.2283C21.4961 56.1243 22.0881 56.8203 22.8561 57.3163C23.6401 57.7963 24.5521 58.0363 25.5921 58.0363ZM36.3212 60.3403V43.6123H41.6732C43.0012 43.6123 44.0812 43.8123 44.9132 44.2123C45.7452 44.5963 46.3532 45.1483 46.7372 45.8683C47.1372 46.5883 47.3372 47.4363 47.3372 48.4123C47.3372 49.9003 46.9052 51.0603 46.0412 51.8923C45.1932 52.7083 43.9772 53.1803 42.3932 53.3083C42.0732 53.3083 41.7292 53.3083 41.3612 53.3083C40.9932 53.3083 40.6652 53.3083 40.3772 53.3083H39.1052V60.3403H36.3212ZM45.4892 60.3403L41.2412 52.9963L44.0972 52.6603L48.7052 60.3403H45.4892ZM39.1052 50.8603H41.3852C41.9932 50.8603 42.5292 50.7883 42.9932 50.6443C43.4732 50.5003 43.8492 50.2523 44.1212 49.9003C44.4092 49.5483 44.5532 49.0603 44.5532 48.4363C44.5532 47.8123 44.4092 47.3323 44.1212 46.9963C43.8492 46.6603 43.4732 46.4283 42.9932 46.3003C42.5132 46.1563 41.9772 46.0843 41.3852 46.0843H39.1052V50.8603ZM50.8056 60.3403V43.6123H53.5896V60.3403H50.8056ZM55.9851 60.3403V58.0363L65.8011 45.2203L66.2091 46.0843H56.5611V43.6123H68.6091V45.9163L59.0091 58.3963L58.6491 57.8683H68.8971V60.3403H55.9851ZM77.928 60.6763C76.36 60.6763 74.984 60.3163 73.8 59.5963C72.616 58.8763 71.688 57.8603 71.016 56.5483C70.36 55.2363 70.032 53.7163 70.032 51.9883C70.032 50.2443 70.36 48.7163 71.016 47.4043C71.688 46.0923 72.616 45.0763 73.8 44.3563C74.984 43.6363 76.36 43.2763 77.928 43.2763C79.528 43.2763 80.92 43.6363 82.104 44.3563C83.304 45.0763 84.232 46.0923 84.888 47.4043C85.56 48.7003 85.896 50.2283 85.896 51.9883C85.896 53.7323 85.56 55.2603 84.888 56.5723C84.216 57.8683 83.28 58.8763 82.08 59.5963C80.896 60.3163 79.512 60.6763 77.928 60.6763ZM77.928 58.0363C79 58.0363 79.92 57.7883 80.688 57.2923C81.456 56.7963 82.048 56.1003 82.464 55.2043C82.896 54.2923 83.112 53.2203 83.112 51.9883C83.112 50.7403 82.896 49.6683 82.464 48.7723C82.048 47.8603 81.456 47.1563 80.688 46.6603C79.92 46.1643 79 45.9163 77.928 45.9163C76.888 45.9163 75.984 46.1643 75.216 46.6603C74.448 47.1403 73.848 47.8363 73.416 48.7483C73 49.6443 72.792 50.7243 72.792 51.9883C72.792 53.2363 73 54.3163 73.416 55.2283C73.832 56.1243 74.424 56.8203 75.192 57.3163C75.976 57.7963 76.888 58.0363 77.928 58.0363ZM88.6571 60.3403V43.6123H91.5371L99.6011 56.7163H98.9051V43.6123H101.689V60.3403H98.7611L90.7691 47.2123H91.4411V60.3403H88.6571ZM116.721 60.6523C114.961 60.6523 113.521 60.1963 112.401 59.2843C111.297 58.3723 110.617 57.1563 110.361 55.6363L113.073 54.9643C113.249 56.0203 113.665 56.8203 114.321 57.3643C114.993 57.9083 115.817 58.1803 116.793 58.1803C117.337 58.1803 117.825 58.0843 118.257 57.8923C118.689 57.6843 119.025 57.3963 119.265 57.0283C119.521 56.6603 119.649 56.2443 119.649 55.7803C119.649 55.2843 119.513 54.8763 119.241 54.5563C118.969 54.2203 118.577 53.9243 118.065 53.6683C117.553 53.3963 116.929 53.1163 116.193 52.8283C115.185 52.4443 114.329 52.0283 113.625 51.5803C112.921 51.1323 112.385 50.6043 112.017 49.9963C111.649 49.3723 111.465 48.6363 111.465 47.7883C111.465 46.9083 111.681 46.1323 112.113 45.4603C112.545 44.7723 113.153 44.2363 113.937 43.8523C114.721 43.4683 115.625 43.2763 116.649 43.2763C117.753 43.2763 118.729 43.5243 119.577 44.0203C120.425 44.5163 121.105 45.2683 121.617 46.2763L119.409 47.6203C119.073 47.0123 118.665 46.5483 118.185 46.2283C117.705 45.8923 117.161 45.7243 116.553 45.7243C116.121 45.7243 115.729 45.8123 115.377 45.9883C115.025 46.1483 114.745 46.3803 114.537 46.6843C114.345 46.9883 114.249 47.3403 114.249 47.7403C114.249 48.1563 114.369 48.5243 114.609 48.8443C114.849 49.1483 115.217 49.4283 115.713 49.6843C116.225 49.9403 116.873 50.2203 117.657 50.5243C118.665 50.9083 119.521 51.3243 120.225 51.7723C120.929 52.2203 121.465 52.7563 121.833 53.3803C122.217 53.9883 122.409 54.7323 122.409 55.6123C122.409 56.5883 122.169 57.4523 121.689 58.2043C121.209 58.9563 120.537 59.5563 119.673 60.0043C118.825 60.4363 117.841 60.6523 116.721 60.6523ZM128.874 60.3403V46.0843H123.546V43.6123H136.986V46.0843H131.682V60.3403H128.874ZM145.169 60.6763C143.105 60.6763 141.529 60.1403 140.441 59.0683C139.369 57.9963 138.833 56.4043 138.833 54.2923V43.6123H141.617V53.9803C141.617 54.8923 141.721 55.6603 141.929 56.2843C142.153 56.8923 142.521 57.3563 143.033 57.6763C143.561 57.9803 144.273 58.1323 145.169 58.1323C146.065 58.1323 146.769 57.9723 147.281 57.6523C147.809 57.3323 148.185 56.8683 148.409 56.2603C148.633 55.6523 148.745 54.8923 148.745 53.9803V43.6123H151.505V54.1723C151.505 56.3323 150.969 57.9563 149.897 59.0443C148.825 60.1323 147.249 60.6763 145.169 60.6763ZM154.774 60.3403V43.6123H159.574C162.326 43.6123 164.462 44.3563 165.982 45.8443C167.502 47.3163 168.262 49.4043 168.262 52.1083C168.262 54.7643 167.51 56.8043 166.006 58.2283C164.518 59.6363 162.366 60.3403 159.55 60.3403H154.774ZM157.558 57.7963H159.286C160.582 57.7963 161.694 57.6203 162.622 57.2683C163.55 56.9003 164.254 56.2923 164.734 55.4443C165.214 54.5963 165.454 53.4523 165.454 52.0123C165.454 50.5723 165.214 49.4283 164.734 48.5803C164.27 47.7163 163.59 47.1003 162.694 46.7323C161.814 46.3483 160.758 46.1563 159.526 46.1563H157.558V57.7963ZM174.095 60.3403V53.8363L168.191 43.6123H171.359L175.415 51.0523L179.543 43.6123H182.687L176.879 53.8363V60.3403H174.095Z" fill="black" fill-opacity="0.2"/>
</svg>
