<svg width="15" height="14" viewBox="0 0 15 14" fill="none" xmlns="http://www.w3.org/2000/svg">
<path d="M1.03492 2.06884C1.03492 1.70676 1.03492 1.52572 1.10538 1.38743C1.16737 1.26578 1.26627 1.16688 1.38792 1.10489C1.52621 1.03443 1.70725 1.03443 2.06933 1.03443H12.9307C13.2928 1.03443 13.4738 1.03443 13.6121 1.10489C13.7338 1.16688 13.8326 1.26578 13.8946 1.38743C13.9651 1.52572 13.9651 1.70676 13.9651 2.06884V2.50161C13.9651 2.67539 13.9651 2.76228 13.9439 2.84307C13.925 2.91468 13.894 2.98251 13.8523 3.04362C13.8051 3.11258 13.7395 3.16949 13.6081 3.28331L9.47321 6.8669C9.3419 6.98069 9.27622 7.03765 9.22909 7.10656C9.18732 7.16772 9.15635 7.23554 9.13748 7.30711C9.11627 7.38792 9.11627 7.47481 9.11627 7.6486V11.0284C9.11627 11.1548 9.11627 11.218 9.09591 11.2727C9.07787 11.321 9.04858 11.3643 9.01044 11.3989C8.96725 11.4382 8.90855 11.4616 8.79114 11.5086L6.59301 12.3879C6.35542 12.4829 6.23659 12.5304 6.14121 12.5106C6.05781 12.4933 5.98462 12.4437 5.93755 12.3727C5.88373 12.2916 5.88373 12.1635 5.88373 11.9077V7.6486C5.88373 7.47481 5.88373 7.38792 5.86249 7.30711C5.84368 7.23554 5.8127 7.16772 5.77092 7.10656C5.72377 7.03765 5.65811 6.98069 5.52679 6.8669L1.39186 3.28331C1.26054 3.16949 1.19488 3.11258 1.14773 3.04362C1.10594 2.98251 1.07497 2.91468 1.05616 2.84307C1.03492 2.76228 1.03492 2.67539 1.03492 2.50161V2.06884Z" stroke="white" stroke-width="2" stroke-linecap="round" stroke-linejoin="round"/>
</svg>
