<svg width="20" height="22" viewBox="0 0 20 22" fill="none" xmlns="http://www.w3.org/2000/svg">
<path d="M7.09321 20C7.79832 20.6224 8.72462 21 9.73902 21C10.7535 21 11.6797 20.6224 12.3848 20M15.739 7C15.739 5.4087 15.1069 3.88258 13.9817 2.75736C12.8564 1.63214 11.3303 1 9.73902 1C8.14772 1 6.62162 1.63214 5.4964 2.75736C4.37118 3.88258 3.73904 5.4087 3.73904 7C3.73904 10.0902 2.95951 12.206 2.0887 13.6054C1.35417 14.7859 0.986897 15.3761 1.00036 15.5408C1.01528 15.7231 1.0539 15.7926 1.20081 15.9016C1.3335 16 1.93163 16 3.12789 16H16.3502C17.5464 16 18.1446 16 18.2772 15.9016C18.4242 15.7926 18.4628 15.7231 18.4777 15.5408C18.4912 15.3761 18.1239 14.7859 17.3894 13.6054C16.5185 12.206 15.739 10.0902 15.739 7Z" stroke="#334155" stroke-width="2" stroke-linecap="round" stroke-linejoin="round"/>
<path d="M7.09321 20C7.79832 20.6224 8.72462 21 9.73902 21C10.7535 21 11.6797 20.6224 12.3848 20M15.739 7C15.739 5.4087 15.1069 3.88258 13.9817 2.75736C12.8564 1.63214 11.3303 1 9.73902 1C8.14772 1 6.62162 1.63214 5.4964 2.75736C4.37118 3.88258 3.73904 5.4087 3.73904 7C3.73904 10.0902 2.95951 12.206 2.0887 13.6054C1.35417 14.7859 0.986897 15.3761 1.00036 15.5408C1.01528 15.7231 1.0539 15.7926 1.20081 15.9016C1.3335 16 1.93163 16 3.12789 16H16.3502C17.5464 16 18.1446 16 18.2772 15.9016C18.4242 15.7926 18.4628 15.7231 18.4777 15.5408C18.4912 15.3761 18.1239 14.7859 17.3894 13.6054C16.5185 12.206 15.739 10.0902 15.739 7Z" stroke="black" stroke-opacity="0.2" stroke-width="2" stroke-linecap="round" stroke-linejoin="round"/>
<path d="M7.09321 20C7.79832 20.6224 8.72462 21 9.73902 21C10.7535 21 11.6797 20.6224 12.3848 20M15.739 7C15.739 5.4087 15.1069 3.88258 13.9817 2.75736C12.8564 1.63214 11.3303 1 9.73902 1C8.14772 1 6.62162 1.63214 5.4964 2.75736C4.37118 3.88258 3.73904 5.4087 3.73904 7C3.73904 10.0902 2.95951 12.206 2.0887 13.6054C1.35417 14.7859 0.986897 15.3761 1.00036 15.5408C1.01528 15.7231 1.0539 15.7926 1.20081 15.9016C1.3335 16 1.93163 16 3.12789 16H16.3502C17.5464 16 18.1446 16 18.2772 15.9016C18.4242 15.7926 18.4628 15.7231 18.4777 15.5408C18.4912 15.3761 18.1239 14.7859 17.3894 13.6054C16.5185 12.206 15.739 10.0902 15.739 7Z" stroke="black" stroke-opacity="0.2" stroke-width="2" stroke-linecap="round" stroke-linejoin="round"/>
<path d="M7.09321 20C7.79832 20.6224 8.72462 21 9.73902 21C10.7535 21 11.6797 20.6224 12.3848 20M15.739 7C15.739 5.4087 15.1069 3.88258 13.9817 2.75736C12.8564 1.63214 11.3303 1 9.73902 1C8.14772 1 6.62162 1.63214 5.4964 2.75736C4.37118 3.88258 3.73904 5.4087 3.73904 7C3.73904 10.0902 2.95951 12.206 2.0887 13.6054C1.35417 14.7859 0.986897 15.3761 1.00036 15.5408C1.01528 15.7231 1.0539 15.7926 1.20081 15.9016C1.3335 16 1.93163 16 3.12789 16H16.3502C17.5464 16 18.1446 16 18.2772 15.9016C18.4242 15.7926 18.4628 15.7231 18.4777 15.5408C18.4912 15.3761 18.1239 14.7859 17.3894 13.6054C16.5185 12.206 15.739 10.0902 15.739 7Z" stroke="black" stroke-opacity="0.2" stroke-width="2" stroke-linecap="round" stroke-linejoin="round"/>
<path d="M7.09321 20C7.79832 20.6224 8.72462 21 9.73902 21C10.7535 21 11.6797 20.6224 12.3848 20M15.739 7C15.739 5.4087 15.1069 3.88258 13.9817 2.75736C12.8564 1.63214 11.3303 1 9.73902 1C8.14772 1 6.62162 1.63214 5.4964 2.75736C4.37118 3.88258 3.73904 5.4087 3.73904 7C3.73904 10.0902 2.95951 12.206 2.0887 13.6054C1.35417 14.7859 0.986897 15.3761 1.00036 15.5408C1.01528 15.7231 1.0539 15.7926 1.20081 15.9016C1.3335 16 1.93163 16 3.12789 16H16.3502C17.5464 16 18.1446 16 18.2772 15.9016C18.4242 15.7926 18.4628 15.7231 18.4777 15.5408C18.4912 15.3761 18.1239 14.7859 17.3894 13.6054C16.5185 12.206 15.739 10.0902 15.739 7Z" stroke="black" stroke-opacity="0.2" stroke-width="2" stroke-linecap="round" stroke-linejoin="round"/>
<path d="M7.09321 20C7.79832 20.6224 8.72462 21 9.73902 21C10.7535 21 11.6797 20.6224 12.3848 20M15.739 7C15.739 5.4087 15.1069 3.88258 13.9817 2.75736C12.8564 1.63214 11.3303 1 9.73902 1C8.14772 1 6.62162 1.63214 5.4964 2.75736C4.37118 3.88258 3.73904 5.4087 3.73904 7C3.73904 10.0902 2.95951 12.206 2.0887 13.6054C1.35417 14.7859 0.986897 15.3761 1.00036 15.5408C1.01528 15.7231 1.0539 15.7926 1.20081 15.9016C1.3335 16 1.93163 16 3.12789 16H16.3502C17.5464 16 18.1446 16 18.2772 15.9016C18.4242 15.7926 18.4628 15.7231 18.4777 15.5408C18.4912 15.3761 18.1239 14.7859 17.3894 13.6054C16.5185 12.206 15.739 10.0902 15.739 7Z" stroke="black" stroke-opacity="0.2" stroke-width="2" stroke-linecap="round" stroke-linejoin="round"/>
<path d="M7.09321 20C7.79832 20.6224 8.72462 21 9.73902 21C10.7535 21 11.6797 20.6224 12.3848 20M15.739 7C15.739 5.4087 15.1069 3.88258 13.9817 2.75736C12.8564 1.63214 11.3303 1 9.73902 1C8.14772 1 6.62162 1.63214 5.4964 2.75736C4.37118 3.88258 3.73904 5.4087 3.73904 7C3.73904 10.0902 2.95951 12.206 2.0887 13.6054C1.35417 14.7859 0.986897 15.3761 1.00036 15.5408C1.01528 15.7231 1.0539 15.7926 1.20081 15.9016C1.3335 16 1.93163 16 3.12789 16H16.3502C17.5464 16 18.1446 16 18.2772 15.9016C18.4242 15.7926 18.4628 15.7231 18.4777 15.5408C18.4912 15.3761 18.1239 14.7859 17.3894 13.6054C16.5185 12.206 15.739 10.0902 15.739 7Z" stroke="black" stroke-opacity="0.2" stroke-width="2" stroke-linecap="round" stroke-linejoin="round"/>
<path d="M7.09321 20C7.79832 20.6224 8.72462 21 9.73902 21C10.7535 21 11.6797 20.6224 12.3848 20M15.739 7C15.739 5.4087 15.1069 3.88258 13.9817 2.75736C12.8564 1.63214 11.3303 1 9.73902 1C8.14772 1 6.62162 1.63214 5.4964 2.75736C4.37118 3.88258 3.73904 5.4087 3.73904 7C3.73904 10.0902 2.95951 12.206 2.0887 13.6054C1.35417 14.7859 0.986897 15.3761 1.00036 15.5408C1.01528 15.7231 1.0539 15.7926 1.20081 15.9016C1.3335 16 1.93163 16 3.12789 16H16.3502C17.5464 16 18.1446 16 18.2772 15.9016C18.4242 15.7926 18.4628 15.7231 18.4777 15.5408C18.4912 15.3761 18.1239 14.7859 17.3894 13.6054C16.5185 12.206 15.739 10.0902 15.739 7Z" stroke="black" stroke-opacity="0.2" stroke-width="2" stroke-linecap="round" stroke-linejoin="round"/>
<path d="M7.09321 20C7.79832 20.6224 8.72462 21 9.73902 21C10.7535 21 11.6797 20.6224 12.3848 20M15.739 7C15.739 5.4087 15.1069 3.88258 13.9817 2.75736C12.8564 1.63214 11.3303 1 9.73902 1C8.14772 1 6.62162 1.63214 5.4964 2.75736C4.37118 3.88258 3.73904 5.4087 3.73904 7C3.73904 10.0902 2.95951 12.206 2.0887 13.6054C1.35417 14.7859 0.986897 15.3761 1.00036 15.5408C1.01528 15.7231 1.0539 15.7926 1.20081 15.9016C1.3335 16 1.93163 16 3.12789 16H16.3502C17.5464 16 18.1446 16 18.2772 15.9016C18.4242 15.7926 18.4628 15.7231 18.4777 15.5408C18.4912 15.3761 18.1239 14.7859 17.3894 13.6054C16.5185 12.206 15.739 10.0902 15.739 7Z" stroke="black" stroke-opacity="0.2" stroke-width="2" stroke-linecap="round" stroke-linejoin="round"/>
<path d="M7.09321 20C7.79832 20.6224 8.72462 21 9.73902 21C10.7535 21 11.6797 20.6224 12.3848 20M15.739 7C15.739 5.4087 15.1069 3.88258 13.9817 2.75736C12.8564 1.63214 11.3303 1 9.73902 1C8.14772 1 6.62162 1.63214 5.4964 2.75736C4.37118 3.88258 3.73904 5.4087 3.73904 7C3.73904 10.0902 2.95951 12.206 2.0887 13.6054C1.35417 14.7859 0.986897 15.3761 1.00036 15.5408C1.01528 15.7231 1.0539 15.7926 1.20081 15.9016C1.3335 16 1.93163 16 3.12789 16H16.3502C17.5464 16 18.1446 16 18.2772 15.9016C18.4242 15.7926 18.4628 15.7231 18.4777 15.5408C18.4912 15.3761 18.1239 14.7859 17.3894 13.6054C16.5185 12.206 15.739 10.0902 15.739 7Z" stroke="black" stroke-opacity="0.2" stroke-width="2" stroke-linecap="round" stroke-linejoin="round"/>
<path d="M7.09321 20C7.79832 20.6224 8.72462 21 9.73902 21C10.7535 21 11.6797 20.6224 12.3848 20M15.739 7C15.739 5.4087 15.1069 3.88258 13.9817 2.75736C12.8564 1.63214 11.3303 1 9.73902 1C8.14772 1 6.62162 1.63214 5.4964 2.75736C4.37118 3.88258 3.73904 5.4087 3.73904 7C3.73904 10.0902 2.95951 12.206 2.0887 13.6054C1.35417 14.7859 0.986897 15.3761 1.00036 15.5408C1.01528 15.7231 1.0539 15.7926 1.20081 15.9016C1.3335 16 1.93163 16 3.12789 16H16.3502C17.5464 16 18.1446 16 18.2772 15.9016C18.4242 15.7926 18.4628 15.7231 18.4777 15.5408C18.4912 15.3761 18.1239 14.7859 17.3894 13.6054C16.5185 12.206 15.739 10.0902 15.739 7Z" stroke="black" stroke-opacity="0.2" stroke-width="2" stroke-linecap="round" stroke-linejoin="round"/>
<path d="M7.09321 20C7.79832 20.6224 8.72462 21 9.73902 21C10.7535 21 11.6797 20.6224 12.3848 20M15.739 7C15.739 5.4087 15.1069 3.88258 13.9817 2.75736C12.8564 1.63214 11.3303 1 9.73902 1C8.14772 1 6.62162 1.63214 5.4964 2.75736C4.37118 3.88258 3.73904 5.4087 3.73904 7C3.73904 10.0902 2.95951 12.206 2.0887 13.6054C1.35417 14.7859 0.986897 15.3761 1.00036 15.5408C1.01528 15.7231 1.0539 15.7926 1.20081 15.9016C1.3335 16 1.93163 16 3.12789 16H16.3502C17.5464 16 18.1446 16 18.2772 15.9016C18.4242 15.7926 18.4628 15.7231 18.4777 15.5408C18.4912 15.3761 18.1239 14.7859 17.3894 13.6054C16.5185 12.206 15.739 10.0902 15.739 7Z" stroke="black" stroke-opacity="0.2" stroke-width="2" stroke-linecap="round" stroke-linejoin="round"/>
<path d="M7.09321 20C7.79832 20.6224 8.72462 21 9.73902 21C10.7535 21 11.6797 20.6224 12.3848 20M15.739 7C15.739 5.4087 15.1069 3.88258 13.9817 2.75736C12.8564 1.63214 11.3303 1 9.73902 1C8.14772 1 6.62162 1.63214 5.4964 2.75736C4.37118 3.88258 3.73904 5.4087 3.73904 7C3.73904 10.0902 2.95951 12.206 2.0887 13.6054C1.35417 14.7859 0.986897 15.3761 1.00036 15.5408C1.01528 15.7231 1.0539 15.7926 1.20081 15.9016C1.3335 16 1.93163 16 3.12789 16H16.3502C17.5464 16 18.1446 16 18.2772 15.9016C18.4242 15.7926 18.4628 15.7231 18.4777 15.5408C18.4912 15.3761 18.1239 14.7859 17.3894 13.6054C16.5185 12.206 15.739 10.0902 15.739 7Z" stroke="black" stroke-opacity="0.2" stroke-width="2" stroke-linecap="round" stroke-linejoin="round"/>
<path d="M7.09321 20C7.79832 20.6224 8.72462 21 9.73902 21C10.7535 21 11.6797 20.6224 12.3848 20M15.739 7C15.739 5.4087 15.1069 3.88258 13.9817 2.75736C12.8564 1.63214 11.3303 1 9.73902 1C8.14772 1 6.62162 1.63214 5.4964 2.75736C4.37118 3.88258 3.73904 5.4087 3.73904 7C3.73904 10.0902 2.95951 12.206 2.0887 13.6054C1.35417 14.7859 0.986897 15.3761 1.00036 15.5408C1.01528 15.7231 1.0539 15.7926 1.20081 15.9016C1.3335 16 1.93163 16 3.12789 16H16.3502C17.5464 16 18.1446 16 18.2772 15.9016C18.4242 15.7926 18.4628 15.7231 18.4777 15.5408C18.4912 15.3761 18.1239 14.7859 17.3894 13.6054C16.5185 12.206 15.739 10.0902 15.739 7Z" stroke="black" stroke-opacity="0.2" stroke-width="2" stroke-linecap="round" stroke-linejoin="round"/>
</svg>
