<svg width="8" height="8" viewBox="0 0 8 8" fill="none" xmlns="http://www.w3.org/2000/svg">
<path d="M4 7C5.6569 7 7 5.6569 7 4C7 2.3431 5.6569 1 4 1C2.3431 1 1 2.3431 1 4C1 5.6569 2.3431 7 4 7Z" stroke="#334155" stroke-width="2" stroke-linecap="round" stroke-linejoin="round"/>
<path d="M4 7C5.6569 7 7 5.6569 7 4C7 2.3431 5.6569 1 4 1C2.3431 1 1 2.3431 1 4C1 5.6569 2.3431 7 4 7Z" stroke="black" stroke-opacity="0.2" stroke-width="2" stroke-linecap="round" stroke-linejoin="round"/>
<path d="M4 7C5.6569 7 7 5.6569 7 4C7 2.3431 5.6569 1 4 1C2.3431 1 1 2.3431 1 4C1 5.6569 2.3431 7 4 7Z" stroke="black" stroke-opacity="0.2" stroke-width="2" stroke-linecap="round" stroke-linejoin="round"/>
<path d="M4 7C5.6569 7 7 5.6569 7 4C7 2.3431 5.6569 1 4 1C2.3431 1 1 2.3431 1 4C1 5.6569 2.3431 7 4 7Z" stroke="black" stroke-opacity="0.2" stroke-width="2" stroke-linecap="round" stroke-linejoin="round"/>
<path d="M4 7C5.6569 7 7 5.6569 7 4C7 2.3431 5.6569 1 4 1C2.3431 1 1 2.3431 1 4C1 5.6569 2.3431 7 4 7Z" stroke="black" stroke-opacity="0.2" stroke-width="2" stroke-linecap="round" stroke-linejoin="round"/>
<path d="M4 7C5.6569 7 7 5.6569 7 4C7 2.3431 5.6569 1 4 1C2.3431 1 1 2.3431 1 4C1 5.6569 2.3431 7 4 7Z" stroke="black" stroke-opacity="0.2" stroke-width="2" stroke-linecap="round" stroke-linejoin="round"/>
<path d="M4 7C5.6569 7 7 5.6569 7 4C7 2.3431 5.6569 1 4 1C2.3431 1 1 2.3431 1 4C1 5.6569 2.3431 7 4 7Z" stroke="black" stroke-opacity="0.2" stroke-width="2" stroke-linecap="round" stroke-linejoin="round"/>
<path d="M4 7C5.6569 7 7 5.6569 7 4C7 2.3431 5.6569 1 4 1C2.3431 1 1 2.3431 1 4C1 5.6569 2.3431 7 4 7Z" stroke="black" stroke-opacity="0.2" stroke-width="2" stroke-linecap="round" stroke-linejoin="round"/>
<path d="M4 7C5.6569 7 7 5.6569 7 4C7 2.3431 5.6569 1 4 1C2.3431 1 1 2.3431 1 4C1 5.6569 2.3431 7 4 7Z" stroke="black" stroke-opacity="0.2" stroke-width="2" stroke-linecap="round" stroke-linejoin="round"/>
<path d="M4 7C5.6569 7 7 5.6569 7 4C7 2.3431 5.6569 1 4 1C2.3431 1 1 2.3431 1 4C1 5.6569 2.3431 7 4 7Z" stroke="black" stroke-opacity="0.2" stroke-width="2" stroke-linecap="round" stroke-linejoin="round"/>
<path d="M4 7C5.6569 7 7 5.6569 7 4C7 2.3431 5.6569 1 4 1C2.3431 1 1 2.3431 1 4C1 5.6569 2.3431 7 4 7Z" stroke="black" stroke-opacity="0.2" stroke-width="2" stroke-linecap="round" stroke-linejoin="round"/>
<path d="M4 7C5.6569 7 7 5.6569 7 4C7 2.3431 5.6569 1 4 1C2.3431 1 1 2.3431 1 4C1 5.6569 2.3431 7 4 7Z" stroke="black" stroke-opacity="0.2" stroke-width="2" stroke-linecap="round" stroke-linejoin="round"/>
<path d="M4 7C5.6569 7 7 5.6569 7 4C7 2.3431 5.6569 1 4 1C2.3431 1 1 2.3431 1 4C1 5.6569 2.3431 7 4 7Z" stroke="black" stroke-opacity="0.2" stroke-width="2" stroke-linecap="round" stroke-linejoin="round"/>
<path d="M4 7C5.6569 7 7 5.6569 7 4C7 2.3431 5.6569 1 4 1C2.3431 1 1 2.3431 1 4C1 5.6569 2.3431 7 4 7Z" stroke="black" stroke-opacity="0.2" stroke-width="2" stroke-linecap="round" stroke-linejoin="round"/>
</svg>
