<svg width="19" height="8" viewBox="0 0 19 8" fill="none" xmlns="http://www.w3.org/2000/svg">
<path d="M9.35729 0.999999C6.18719 0.999999 3.36807 2.5306 1.57327 4.90599C1.18698 5.41719 0.993829 5.67279 1.00015 6.01829C1.00503 6.28519 1.17263 6.62189 1.38264 6.78669C1.65446 6.99999 2.03114 6.99999 2.7845 6.99999H15.93C16.6834 6.99999 17.0601 6.99999 17.3319 6.78669C17.5419 6.62189 17.7095 6.28519 17.7144 6.01829C17.7207 5.67279 17.5276 5.41719 17.1413 4.90599C15.3465 2.5306 12.5273 0.999999 9.35729 0.999999Z" stroke="#334155" stroke-width="2" stroke-linecap="round" stroke-linejoin="round"/>
<path d="M9.35729 0.999999C6.18719 0.999999 3.36807 2.5306 1.57327 4.90599C1.18698 5.41719 0.993829 5.67279 1.00015 6.01829C1.00503 6.28519 1.17263 6.62189 1.38264 6.78669C1.65446 6.99999 2.03114 6.99999 2.7845 6.99999H15.93C16.6834 6.99999 17.0601 6.99999 17.3319 6.78669C17.5419 6.62189 17.7095 6.28519 17.7144 6.01829C17.7207 5.67279 17.5276 5.41719 17.1413 4.90599C15.3465 2.5306 12.5273 0.999999 9.35729 0.999999Z" stroke="black" stroke-opacity="0.2" stroke-width="2" stroke-linecap="round" stroke-linejoin="round"/>
<path d="M9.35729 0.999999C6.18719 0.999999 3.36807 2.5306 1.57327 4.90599C1.18698 5.41719 0.993829 5.67279 1.00015 6.01829C1.00503 6.28519 1.17263 6.62189 1.38264 6.78669C1.65446 6.99999 2.03114 6.99999 2.7845 6.99999H15.93C16.6834 6.99999 17.0601 6.99999 17.3319 6.78669C17.5419 6.62189 17.7095 6.28519 17.7144 6.01829C17.7207 5.67279 17.5276 5.41719 17.1413 4.90599C15.3465 2.5306 12.5273 0.999999 9.35729 0.999999Z" stroke="black" stroke-opacity="0.2" stroke-width="2" stroke-linecap="round" stroke-linejoin="round"/>
<path d="M9.35729 0.999999C6.18719 0.999999 3.36807 2.5306 1.57327 4.90599C1.18698 5.41719 0.993829 5.67279 1.00015 6.01829C1.00503 6.28519 1.17263 6.62189 1.38264 6.78669C1.65446 6.99999 2.03114 6.99999 2.7845 6.99999H15.93C16.6834 6.99999 17.0601 6.99999 17.3319 6.78669C17.5419 6.62189 17.7095 6.28519 17.7144 6.01829C17.7207 5.67279 17.5276 5.41719 17.1413 4.90599C15.3465 2.5306 12.5273 0.999999 9.35729 0.999999Z" stroke="black" stroke-opacity="0.2" stroke-width="2" stroke-linecap="round" stroke-linejoin="round"/>
<path d="M9.35729 0.999999C6.18719 0.999999 3.36807 2.5306 1.57327 4.90599C1.18698 5.41719 0.993829 5.67279 1.00015 6.01829C1.00503 6.28519 1.17263 6.62189 1.38264 6.78669C1.65446 6.99999 2.03114 6.99999 2.7845 6.99999H15.93C16.6834 6.99999 17.0601 6.99999 17.3319 6.78669C17.5419 6.62189 17.7095 6.28519 17.7144 6.01829C17.7207 5.67279 17.5276 5.41719 17.1413 4.90599C15.3465 2.5306 12.5273 0.999999 9.35729 0.999999Z" stroke="black" stroke-opacity="0.2" stroke-width="2" stroke-linecap="round" stroke-linejoin="round"/>
<path d="M9.35729 0.999999C6.18719 0.999999 3.36807 2.5306 1.57327 4.90599C1.18698 5.41719 0.993829 5.67279 1.00015 6.01829C1.00503 6.28519 1.17263 6.62189 1.38264 6.78669C1.65446 6.99999 2.03114 6.99999 2.7845 6.99999H15.93C16.6834 6.99999 17.0601 6.99999 17.3319 6.78669C17.5419 6.62189 17.7095 6.28519 17.7144 6.01829C17.7207 5.67279 17.5276 5.41719 17.1413 4.90599C15.3465 2.5306 12.5273 0.999999 9.35729 0.999999Z" stroke="black" stroke-opacity="0.2" stroke-width="2" stroke-linecap="round" stroke-linejoin="round"/>
<path d="M9.35729 0.999999C6.18719 0.999999 3.36807 2.5306 1.57327 4.90599C1.18698 5.41719 0.993829 5.67279 1.00015 6.01829C1.00503 6.28519 1.17263 6.62189 1.38264 6.78669C1.65446 6.99999 2.03114 6.99999 2.7845 6.99999H15.93C16.6834 6.99999 17.0601 6.99999 17.3319 6.78669C17.5419 6.62189 17.7095 6.28519 17.7144 6.01829C17.7207 5.67279 17.5276 5.41719 17.1413 4.90599C15.3465 2.5306 12.5273 0.999999 9.35729 0.999999Z" stroke="black" stroke-opacity="0.2" stroke-width="2" stroke-linecap="round" stroke-linejoin="round"/>
<path d="M9.35729 0.999999C6.18719 0.999999 3.36807 2.5306 1.57327 4.90599C1.18698 5.41719 0.993829 5.67279 1.00015 6.01829C1.00503 6.28519 1.17263 6.62189 1.38264 6.78669C1.65446 6.99999 2.03114 6.99999 2.7845 6.99999H15.93C16.6834 6.99999 17.0601 6.99999 17.3319 6.78669C17.5419 6.62189 17.7095 6.28519 17.7144 6.01829C17.7207 5.67279 17.5276 5.41719 17.1413 4.90599C15.3465 2.5306 12.5273 0.999999 9.35729 0.999999Z" stroke="black" stroke-opacity="0.2" stroke-width="2" stroke-linecap="round" stroke-linejoin="round"/>
<path d="M9.35729 0.999999C6.18719 0.999999 3.36807 2.5306 1.57327 4.90599C1.18698 5.41719 0.993829 5.67279 1.00015 6.01829C1.00503 6.28519 1.17263 6.62189 1.38264 6.78669C1.65446 6.99999 2.03114 6.99999 2.7845 6.99999H15.93C16.6834 6.99999 17.0601 6.99999 17.3319 6.78669C17.5419 6.62189 17.7095 6.28519 17.7144 6.01829C17.7207 5.67279 17.5276 5.41719 17.1413 4.90599C15.3465 2.5306 12.5273 0.999999 9.35729 0.999999Z" stroke="black" stroke-opacity="0.2" stroke-width="2" stroke-linecap="round" stroke-linejoin="round"/>
<path d="M9.35729 0.999999C6.18719 0.999999 3.36807 2.5306 1.57327 4.90599C1.18698 5.41719 0.993829 5.67279 1.00015 6.01829C1.00503 6.28519 1.17263 6.62189 1.38264 6.78669C1.65446 6.99999 2.03114 6.99999 2.7845 6.99999H15.93C16.6834 6.99999 17.0601 6.99999 17.3319 6.78669C17.5419 6.62189 17.7095 6.28519 17.7144 6.01829C17.7207 5.67279 17.5276 5.41719 17.1413 4.90599C15.3465 2.5306 12.5273 0.999999 9.35729 0.999999Z" stroke="black" stroke-opacity="0.2" stroke-width="2" stroke-linecap="round" stroke-linejoin="round"/>
<path d="M9.35729 0.999999C6.18719 0.999999 3.36807 2.5306 1.57327 4.90599C1.18698 5.41719 0.993829 5.67279 1.00015 6.01829C1.00503 6.28519 1.17263 6.62189 1.38264 6.78669C1.65446 6.99999 2.03114 6.99999 2.7845 6.99999H15.93C16.6834 6.99999 17.0601 6.99999 17.3319 6.78669C17.5419 6.62189 17.7095 6.28519 17.7144 6.01829C17.7207 5.67279 17.5276 5.41719 17.1413 4.90599C15.3465 2.5306 12.5273 0.999999 9.35729 0.999999Z" stroke="black" stroke-opacity="0.2" stroke-width="2" stroke-linecap="round" stroke-linejoin="round"/>
<path d="M9.35729 0.999999C6.18719 0.999999 3.36807 2.5306 1.57327 4.90599C1.18698 5.41719 0.993829 5.67279 1.00015 6.01829C1.00503 6.28519 1.17263 6.62189 1.38264 6.78669C1.65446 6.99999 2.03114 6.99999 2.7845 6.99999H15.93C16.6834 6.99999 17.0601 6.99999 17.3319 6.78669C17.5419 6.62189 17.7095 6.28519 17.7144 6.01829C17.7207 5.67279 17.5276 5.41719 17.1413 4.90599C15.3465 2.5306 12.5273 0.999999 9.35729 0.999999Z" stroke="black" stroke-opacity="0.2" stroke-width="2" stroke-linecap="round" stroke-linejoin="round"/>
<path d="M9.35729 0.999999C6.18719 0.999999 3.36807 2.5306 1.57327 4.90599C1.18698 5.41719 0.993829 5.67279 1.00015 6.01829C1.00503 6.28519 1.17263 6.62189 1.38264 6.78669C1.65446 6.99999 2.03114 6.99999 2.7845 6.99999H15.93C16.6834 6.99999 17.0601 6.99999 17.3319 6.78669C17.5419 6.62189 17.7095 6.28519 17.7144 6.01829C17.7207 5.67279 17.5276 5.41719 17.1413 4.90599C15.3465 2.5306 12.5273 0.999999 9.35729 0.999999Z" stroke="black" stroke-opacity="0.2" stroke-width="2" stroke-linecap="round" stroke-linejoin="round"/>
<path d="M9.35729 0.999999C6.18719 0.999999 3.36807 2.5306 1.57327 4.90599C1.18698 5.41719 0.993829 5.67279 1.00015 6.01829C1.00503 6.28519 1.17263 6.62189 1.38264 6.78669C1.65446 6.99999 2.03114 6.99999 2.7845 6.99999H15.93C16.6834 6.99999 17.0601 6.99999 17.3319 6.78669C17.5419 6.62189 17.7095 6.28519 17.7144 6.01829C17.7207 5.67279 17.5276 5.41719 17.1413 4.90599C15.3465 2.5306 12.5273 0.999999 9.35729 0.999999Z" stroke="black" stroke-opacity="0.2" stroke-width="2" stroke-linecap="round" stroke-linejoin="round"/>
</svg>
