<svg width="11" height="11" viewBox="0 0 11 11" fill="none" xmlns="http://www.w3.org/2000/svg">
<path d="M5.50003 10C7.98533 10 10 7.98528 10 5.5C10 3.01472 7.98533 1 5.50003 1C3.01472 1 1 3.01472 1 5.5C1 7.98528 3.01472 10 5.50003 10Z" stroke="#334155" stroke-width="2" stroke-linecap="round" stroke-linejoin="round"/>
<path d="M5.50003 10C7.98533 10 10 7.98528 10 5.5C10 3.01472 7.98533 1 5.50003 1C3.01472 1 1 3.01472 1 5.5C1 7.98528 3.01472 10 5.50003 10Z" stroke="black" stroke-opacity="0.2" stroke-width="2" stroke-linecap="round" stroke-linejoin="round"/>
<path d="M5.50003 10C7.98533 10 10 7.98528 10 5.5C10 3.01472 7.98533 1 5.50003 1C3.01472 1 1 3.01472 1 5.5C1 7.98528 3.01472 10 5.50003 10Z" stroke="black" stroke-opacity="0.2" stroke-width="2" stroke-linecap="round" stroke-linejoin="round"/>
<path d="M5.50003 10C7.98533 10 10 7.98528 10 5.5C10 3.01472 7.98533 1 5.50003 1C3.01472 1 1 3.01472 1 5.5C1 7.98528 3.01472 10 5.50003 10Z" stroke="black" stroke-opacity="0.2" stroke-width="2" stroke-linecap="round" stroke-linejoin="round"/>
<path d="M5.50003 10C7.98533 10 10 7.98528 10 5.5C10 3.01472 7.98533 1 5.50003 1C3.01472 1 1 3.01472 1 5.5C1 7.98528 3.01472 10 5.50003 10Z" stroke="black" stroke-opacity="0.2" stroke-width="2" stroke-linecap="round" stroke-linejoin="round"/>
<path d="M5.50003 10C7.98533 10 10 7.98528 10 5.5C10 3.01472 7.98533 1 5.50003 1C3.01472 1 1 3.01472 1 5.5C1 7.98528 3.01472 10 5.50003 10Z" stroke="black" stroke-opacity="0.2" stroke-width="2" stroke-linecap="round" stroke-linejoin="round"/>
<path d="M5.50003 10C7.98533 10 10 7.98528 10 5.5C10 3.01472 7.98533 1 5.50003 1C3.01472 1 1 3.01472 1 5.5C1 7.98528 3.01472 10 5.50003 10Z" stroke="black" stroke-opacity="0.2" stroke-width="2" stroke-linecap="round" stroke-linejoin="round"/>
<path d="M5.50003 10C7.98533 10 10 7.98528 10 5.5C10 3.01472 7.98533 1 5.50003 1C3.01472 1 1 3.01472 1 5.5C1 7.98528 3.01472 10 5.50003 10Z" stroke="black" stroke-opacity="0.2" stroke-width="2" stroke-linecap="round" stroke-linejoin="round"/>
<path d="M5.50003 10C7.98533 10 10 7.98528 10 5.5C10 3.01472 7.98533 1 5.50003 1C3.01472 1 1 3.01472 1 5.5C1 7.98528 3.01472 10 5.50003 10Z" stroke="black" stroke-opacity="0.2" stroke-width="2" stroke-linecap="round" stroke-linejoin="round"/>
<path d="M5.50003 10C7.98533 10 10 7.98528 10 5.5C10 3.01472 7.98533 1 5.50003 1C3.01472 1 1 3.01472 1 5.5C1 7.98528 3.01472 10 5.50003 10Z" stroke="black" stroke-opacity="0.2" stroke-width="2" stroke-linecap="round" stroke-linejoin="round"/>
<path d="M5.50003 10C7.98533 10 10 7.98528 10 5.5C10 3.01472 7.98533 1 5.50003 1C3.01472 1 1 3.01472 1 5.5C1 7.98528 3.01472 10 5.50003 10Z" stroke="black" stroke-opacity="0.2" stroke-width="2" stroke-linecap="round" stroke-linejoin="round"/>
<path d="M5.50003 10C7.98533 10 10 7.98528 10 5.5C10 3.01472 7.98533 1 5.50003 1C3.01472 1 1 3.01472 1 5.5C1 7.98528 3.01472 10 5.50003 10Z" stroke="black" stroke-opacity="0.2" stroke-width="2" stroke-linecap="round" stroke-linejoin="round"/>
<path d="M5.50003 10C7.98533 10 10 7.98528 10 5.5C10 3.01472 7.98533 1 5.50003 1C3.01472 1 1 3.01472 1 5.5C1 7.98528 3.01472 10 5.50003 10Z" stroke="black" stroke-opacity="0.2" stroke-width="2" stroke-linecap="round" stroke-linejoin="round"/>
<path d="M5.50003 10C7.98533 10 10 7.98528 10 5.5C10 3.01472 7.98533 1 5.50003 1C3.01472 1 1 3.01472 1 5.5C1 7.98528 3.01472 10 5.50003 10Z" stroke="black" stroke-opacity="0.2" stroke-width="2" stroke-linecap="round" stroke-linejoin="round"/>
</svg>
