<svg width="20" height="20" viewBox="0 0 20 20" fill="none" xmlns="http://www.w3.org/2000/svg">
<path fill-rule="evenodd" clip-rule="evenodd" d="M9.99441 4.27984C8.32825 2.332 5.54987 1.80804 3.46232 3.59168C1.37478 5.37532 1.08089 8.3575 2.72025 10.467C4.08327 12.2209 8.20822 15.9201 9.56016 17.1173C9.71141 17.2513 9.78708 17.3183 9.87525 17.3446C9.95225 17.3676 10.0365 17.3676 10.1135 17.3446C10.2017 17.3183 10.2773 17.2513 10.4286 17.1173C11.7805 15.9201 15.9055 12.2209 17.2685 10.467C18.9078 8.3575 18.6498 5.35656 16.5264 3.59168C14.403 1.8268 11.6605 2.332 9.99441 4.27984Z" stroke="#0F172A" stroke-width="2" stroke-linecap="round" stroke-linejoin="round"/>
<path fill-rule="evenodd" clip-rule="evenodd" d="M9.99441 4.27984C8.32825 2.332 5.54987 1.80804 3.46232 3.59168C1.37478 5.37532 1.08089 8.3575 2.72025 10.467C4.08327 12.2209 8.20822 15.9201 9.56016 17.1173C9.71141 17.2513 9.78708 17.3183 9.87525 17.3446C9.95225 17.3676 10.0365 17.3676 10.1135 17.3446C10.2017 17.3183 10.2773 17.2513 10.4286 17.1173C11.7805 15.9201 15.9055 12.2209 17.2685 10.467C18.9078 8.3575 18.6498 5.35656 16.5264 3.59168C14.403 1.8268 11.6605 2.332 9.99441 4.27984Z" stroke="black" stroke-opacity="0.2" stroke-width="2" stroke-linecap="round" stroke-linejoin="round"/>
<path fill-rule="evenodd" clip-rule="evenodd" d="M9.99441 4.27984C8.32825 2.332 5.54987 1.80804 3.46232 3.59168C1.37478 5.37532 1.08089 8.3575 2.72025 10.467C4.08327 12.2209 8.20822 15.9201 9.56016 17.1173C9.71141 17.2513 9.78708 17.3183 9.87525 17.3446C9.95225 17.3676 10.0365 17.3676 10.1135 17.3446C10.2017 17.3183 10.2773 17.2513 10.4286 17.1173C11.7805 15.9201 15.9055 12.2209 17.2685 10.467C18.9078 8.3575 18.6498 5.35656 16.5264 3.59168C14.403 1.8268 11.6605 2.332 9.99441 4.27984Z" stroke="black" stroke-opacity="0.2" stroke-width="2" stroke-linecap="round" stroke-linejoin="round"/>
<path fill-rule="evenodd" clip-rule="evenodd" d="M9.99441 4.27984C8.32825 2.332 5.54987 1.80804 3.46232 3.59168C1.37478 5.37532 1.08089 8.3575 2.72025 10.467C4.08327 12.2209 8.20822 15.9201 9.56016 17.1173C9.71141 17.2513 9.78708 17.3183 9.87525 17.3446C9.95225 17.3676 10.0365 17.3676 10.1135 17.3446C10.2017 17.3183 10.2773 17.2513 10.4286 17.1173C11.7805 15.9201 15.9055 12.2209 17.2685 10.467C18.9078 8.3575 18.6498 5.35656 16.5264 3.59168C14.403 1.8268 11.6605 2.332 9.99441 4.27984Z" stroke="black" stroke-opacity="0.2" stroke-width="2" stroke-linecap="round" stroke-linejoin="round"/>
<path fill-rule="evenodd" clip-rule="evenodd" d="M9.99441 4.27984C8.32825 2.332 5.54987 1.80804 3.46232 3.59168C1.37478 5.37532 1.08089 8.3575 2.72025 10.467C4.08327 12.2209 8.20822 15.9201 9.56016 17.1173C9.71141 17.2513 9.78708 17.3183 9.87525 17.3446C9.95225 17.3676 10.0365 17.3676 10.1135 17.3446C10.2017 17.3183 10.2773 17.2513 10.4286 17.1173C11.7805 15.9201 15.9055 12.2209 17.2685 10.467C18.9078 8.3575 18.6498 5.35656 16.5264 3.59168C14.403 1.8268 11.6605 2.332 9.99441 4.27984Z" stroke="black" stroke-opacity="0.2" stroke-width="2" stroke-linecap="round" stroke-linejoin="round"/>
</svg>
